<?xml version="1.0" encoding="UTF-8"?>
<!DOCTYPE svg PUBLIC "-//W3C//DTD SVG 1.1//EN" "http://www.w3.org/Graphics/SVG/1.1/DTD/svg11.dtd">
<svg xmlns="http://www.w3.org/2000/svg" version="1.1" width="507px" height="600px" style="shape-rendering:geometricPrecision; text-rendering:geometricPrecision; image-rendering:optimizeQuality; fill-rule:evenodd; clip-rule:evenodd" xmlns:xlink="http://www.w3.org/1999/xlink">
<g><path style="opacity:0.887" fill="#9aac31" d="M 412.5,228.5 C 412.366,230.292 412.699,231.958 413.5,233.5C 418.161,242.286 418.828,251.453 415.5,261C 417.329,265.82 419.163,270.653 421,275.5C 422.043,278.757 422.543,282.09 422.5,285.5C 422.328,286.492 422.662,287.158 423.5,287.5C 421.171,296.252 422.004,304.918 426,313.5C 426.498,310.183 426.665,306.85 426.5,303.5C 427.636,309.641 428.303,315.974 428.5,322.5C 427.883,322.389 427.383,322.056 427,321.5C 425.991,323.025 425.491,324.692 425.5,326.5C 424.778,325.449 423.778,324.782 422.5,324.5C 419.482,324.335 416.482,324.502 413.5,325C 407.346,328.872 400.679,330.539 393.5,330C 391.884,329.385 390.551,328.385 389.5,327C 387.833,326.333 386.167,326.333 384.5,327C 377.853,330.299 371.186,333.632 364.5,337C 359.344,338.962 354.011,339.795 348.5,339.5C 347.791,338.596 346.791,338.263 345.5,338.5C 344.737,337.732 343.737,337.232 342.5,337C 334.312,334.975 327.312,336.808 321.5,342.5C 320.508,342.328 319.842,342.662 319.5,343.5C 316.31,344.783 312.976,345.45 309.5,345.5C 304.357,343.607 299.024,342.273 293.5,341.5C 292.833,341.5 292.167,341.5 291.5,341.5C 288.175,341.494 285.841,342.994 284.5,346C 277.089,350.645 269.089,351.811 260.5,349.5C 259.833,349.5 259.167,349.5 258.5,349.5C 256.801,349.34 255.134,349.506 253.5,350C 245.538,356.421 236.538,358.254 226.5,355.5C 220.001,356.749 214.335,359.583 209.5,364C 202.067,363.617 195.067,364.95 188.5,368C 185.518,368.498 182.518,368.665 179.5,368.5C 178.391,368.443 177.391,368.11 176.5,367.5C 169.929,364.033 162.929,361.866 155.5,361C 152.757,358.962 149.757,357.462 146.5,356.5C 145.89,355.609 145.557,354.609 145.5,353.5C 149.423,354.795 153.09,356.628 156.5,359C 161.706,359.557 166.706,360.557 171.5,362C 168.9,359.016 167.9,355.516 168.5,351.5C 168.841,344.024 166.675,337.357 162,331.5C 160.422,328.343 159.422,325.009 159,321.5C 158.34,319.676 157.173,318.343 155.5,317.5C 150.791,311.43 147.791,304.763 146.5,297.5C 146.322,294.784 145.822,292.117 145,289.5C 141.947,286.113 139.28,282.447 137,278.5C 136.505,276.527 136.338,274.527 136.5,272.5C 136.921,266.186 135.754,260.186 133,254.5C 129.667,249.833 126.333,245.167 123,240.5C 123.393,229.286 119.393,219.952 111,212.5C 109.414,210.33 108.08,207.996 107,205.5C 107.48,193.421 104.813,182.087 99,171.5C 97.7535,162.845 95.4201,154.512 92,146.5C 89.146,144.402 86.4794,142.069 84,139.5C 82.9529,132.517 81.9529,125.517 81,118.5C 77.5412,111.918 74.3746,105.251 71.5,98.5C 71.678,94.8776 71.0114,91.5443 69.5,88.5C 69.405,86.2143 68.7384,84.2143 67.5,82.5C 66.2442,74.9269 64.0775,74.2603 61,80.5C 60.798,85.9885 59.798,91.3219 58,96.5C 55.6667,99.5 53.3333,102.5 51,105.5C 51.8867,115.376 49.5534,124.376 44,132.5C 39.744,134.42 36.4107,137.42 34,141.5C 33.7728,146.897 33.1062,152.231 32,157.5C 28.7536,163.087 25.0869,168.42 21,173.5C 19.9858,178.813 21.3191,183.48 25,187.5C 28,189.833 31,192.167 34,194.5C 35.8565,201.417 38.8565,207.75 43,213.5C 51.3773,222.875 59.3773,232.542 67,242.5C 68.1146,246.729 69.7813,250.729 72,254.5C 80.1098,261.798 85.4431,270.798 88,281.5C 92.7845,286.956 96.7845,292.956 100,299.5C 100.494,301.134 100.66,302.801 100.5,304.5C 101.366,310.884 104.533,315.884 110,319.5C 110.757,321.315 111.59,322.981 112.5,324.5C 112.802,327.059 112.468,329.393 111.5,331.5C 109.669,324.513 105.836,318.847 100,314.5C 97.5762,309.806 96.2428,304.806 96,299.5C 92.7377,293.307 88.7377,287.64 84,282.5C 81.2369,271.634 75.9036,262.3 68,254.5C 65.8065,250.251 63.8065,245.918 62,241.5C 54.3773,231.542 46.3773,221.875 38,212.5C 35.0915,207.449 32.7582,202.116 31,196.5C 25.2815,193.115 20.9481,188.448 18,182.5C 16.7754,176.732 17.7754,171.399 21,166.5C 23.706,164.129 26.0394,161.463 28,158.5C 29.8362,152.309 30.8362,145.975 31,139.5C 33.7174,135.116 37.3841,131.782 42,129.5C 46.2896,121.389 48.2896,112.722 48,103.5C 50.3333,100.5 52.6667,97.5 55,94.5C 56.5186,88.5313 57.8519,82.5313 59,76.5C 61.7374,70.1763 65.5707,64.6763 70.5,60C 81.3667,59.6167 92.0333,57.9501 102.5,55C 108.758,52.034 115.092,49.3674 121.5,47C 129.79,47.8545 138.124,48.1878 146.5,48C 149.833,45 153.167,42 156.5,39C 164.557,37.7084 172.224,38.875 179.5,42.5C 186.924,41.4546 193.257,38.2879 198.5,33C 204.262,32.3094 209.929,32.8094 215.5,34.5C 220.117,32.4703 224.95,31.1369 230,30.5C 238.822,32.5935 247.655,32.7602 256.5,31C 261.507,27.9482 266.507,24.9482 271.5,22C 275.5,21.3333 279.5,21.3333 283.5,22C 293.524,25.2261 303.524,25.2261 313.5,22C 316.433,20.7291 319.099,19.0624 321.5,17C 329.038,16.673 336.371,17.8396 343.5,20.5C 351.746,19.1414 359.412,16.3081 366.5,12C 375.742,10.6219 382.242,14.1219 386,22.5C 386.551,30.2271 386.051,37.8937 384.5,45.5C 387.055,52.2773 389.888,58.944 393,65.5C 393.904,71.154 393.404,76.654 391.5,82C 392.535,87.7708 394.368,93.2708 397,98.5C 397.333,102.833 397.667,107.167 398,111.5C 400.157,120.462 402.157,129.462 404,138.5C 404.739,145.36 404.572,152.193 403.5,159C 408.616,170.97 410.783,183.47 410,196.5C 411.84,198.848 413.007,201.515 413.5,204.5C 412.562,212.464 412.229,220.464 412.5,228.5 Z"/></g>
<g><path style="opacity:1" fill="#d0c42a" d="M 384.5,324.5 C 391.307,323.286 398.307,322.453 405.5,322C 413.536,320.292 417.536,315.292 417.5,307C 417.725,292.165 415.725,277.665 411.5,263.5C 411.028,250.638 409.194,237.971 406,225.5C 404.324,202.767 401.991,180.1 399,157.5C 398.318,150.036 396.984,142.703 395,135.5C 394.376,133.246 393.043,131.579 391,130.5C 390.333,131.167 389.667,131.833 389,132.5C 386.391,139.326 384.391,146.326 383,153.5C 380.223,156.718 378.223,160.385 377,164.5C 375,166.5 373,168.5 371,170.5C 370.329,169.748 369.496,169.414 368.5,169.5C 381.321,152.139 385.487,132.806 381,111.5C 374.599,90.6064 361.432,75.9398 341.5,67.5C 345.826,65.9095 348.993,67.2428 351,71.5C 351.561,70.9781 352.228,70.6448 353,70.5C 359.89,74.3859 365.89,79.3859 371,85.5C 375.667,91.5 380.333,97.5 385,103.5C 385.667,102.833 386.333,102.167 387,101.5C 386.847,90.5192 386.514,79.5192 386,68.5C 384.581,62.5733 382.581,56.9066 380,51.5C 379.002,44.5335 378.336,37.5335 378,30.5C 376.357,28.0232 374.524,25.6898 372.5,23.5C 370.357,22.2463 368.357,22.2463 366.5,23.5C 362.513,23.0097 358.846,23.6764 355.5,25.5C 355.44,24.9569 355.107,24.6236 354.5,24.5C 345.548,25.3064 336.548,25.8064 327.5,26C 321.303,27.2003 315.303,28.7003 309.5,30.5C 293.739,29.993 278.073,30.6597 262.5,32.5C 264.992,29.5178 267.992,27.0178 271.5,25C 277.654,24.2155 283.654,24.8821 289.5,27C 296.167,27.6667 302.833,27.6667 309.5,27C 314.058,26.0543 318.058,24.0543 321.5,21C 330.901,21.3583 340.234,22.025 349.5,23C 356.645,20.2858 363.812,17.7858 371,15.5C 376.568,15.7228 380.568,18.3894 383,23.5C 382.505,32.4858 382.172,41.4858 382,50.5C 383.173,54.3372 385.173,57.6706 388,60.5C 391.158,67.4343 391.325,74.4343 388.5,81.5C 389.42,88.0939 391.253,94.4272 394,100.5C 394.167,111.837 396.167,122.837 400,133.5C 400.623,137.986 401.123,142.486 401.5,147C 400.667,152.49 400.5,157.99 401,163.5C 405.715,174.333 407.715,185.666 407,197.5C 407.667,198.833 408.333,200.167 409,201.5C 408.823,210.16 408.823,218.826 409,227.5C 411.466,234.092 413.633,240.758 415.5,247.5C 414.888,252.008 414.221,256.508 413.5,261C 415.793,267.763 417.96,274.597 420,281.5C 419.133,290.181 419.466,298.848 421,307.5C 422.05,311.385 423.55,315.052 425.5,318.5C 425.41,320.425 424.41,321.592 422.5,322C 418.833,322.333 415.167,322.667 411.5,323C 407.06,325.8 402.227,327.634 397,328.5C 394.62,327.799 392.453,326.633 390.5,325C 388.527,324.505 386.527,324.338 384.5,324.5 Z"/></g>
<g><path style="opacity:1" fill="#fdf34d" d="M 160.5,81.5 C 161.674,82.5137 162.34,83.847 162.5,85.5C 158.401,91.5717 154.567,97.9051 151,104.5C 149.989,105.337 148.822,105.67 147.5,105.5C 131.429,142.557 137.429,175.223 165.5,203.5C 192.169,223.852 220.836,227.019 251.5,213C 260.372,207.926 268.372,201.926 275.5,195C 280.842,193.235 286.175,193.568 291.5,196C 292.252,196.671 292.586,197.504 292.5,198.5C 290.95,199.441 289.284,200.107 287.5,200.5C 286.778,200.918 286.278,201.584 286,202.5C 285.481,201.484 284.647,200.818 283.5,200.5C 277.016,203.914 271.016,208.08 265.5,213C 234.359,233.229 202.693,234.229 170.5,216C 168.561,215.092 167.561,213.592 167.5,211.5C 166.817,209.824 165.483,209.157 163.5,209.5C 162.83,206.82 160.83,204.82 157.5,203.5C 140.401,188.437 132.067,169.271 132.5,146C 132.249,124.75 138.749,105.916 152,89.5C 154.285,87.0934 156.451,84.5934 158.5,82C 159.094,81.5357 159.761,81.369 160.5,81.5 Z"/></g>
<g><path style="opacity:1" fill="#ded133" d="M 190.5,70.5 C 192.04,72.8383 192.706,75.5049 192.5,78.5C 183.928,80.732 176.262,84.732 169.5,90.5C 168.016,89.5331 167.016,88.1998 166.5,86.5C 167.655,83.712 169.655,81.5453 172.5,80C 178.074,77.7119 183.741,75.7119 189.5,74C 190.337,72.9887 190.67,71.8221 190.5,70.5 Z"/></g>
<g><path style="opacity:1" fill="#e5d936" d="M 366.5,23.5 C 368.357,22.2463 370.357,22.2463 372.5,23.5C 374.524,25.6898 376.357,28.0232 378,30.5C 378.336,37.5335 379.002,44.5335 380,51.5C 382.581,56.9066 384.581,62.5733 386,68.5C 386.514,79.5192 386.847,90.5192 387,101.5C 386.333,102.167 385.667,102.833 385,103.5C 380.333,97.5 375.667,91.5 371,85.5C 365.89,79.3859 359.89,74.3859 353,70.5C 352.228,70.6448 351.561,70.9781 351,71.5C 348.993,67.2428 345.826,65.9095 341.5,67.5C 337.864,66.6745 334.197,66.0078 330.5,65.5C 330.717,61.2949 331.383,57.2949 332.5,53.5C 332.5,54.8333 332.5,56.1667 332.5,57.5C 348.411,62.2924 362.411,70.4591 374.5,82C 379.759,82.2409 382.092,79.5742 381.5,74C 379.013,63.4105 376.679,52.9105 374.5,42.5C 377.918,33.5138 375.252,27.1804 366.5,23.5 Z"/></g>
<g><path style="opacity:1" fill="#97a930" d="M 108.5,66.5 C 109.167,66.5 109.833,66.5 110.5,66.5C 114.66,68.4205 118.327,71.0871 121.5,74.5C 127.602,86.5052 124.936,96.0052 113.5,103C 100.008,107.666 90.5076,103.5 85,90.5C 83.0747,82.9427 84.9081,76.6093 90.5,71.5C 95.597,66.9886 101.597,65.3219 108.5,66.5 Z"/></g>
<g><path style="opacity:1" fill="#fef55f" d="M 162.5,77.5 C 161.639,75.6137 160.639,73.7804 159.5,72C 158.517,71.4092 157.85,71.7425 157.5,73C 158.939,75.7047 159.939,78.538 160.5,81.5C 159.761,81.369 159.094,81.5357 158.5,82C 156.451,84.5934 154.285,87.0934 152,89.5C 138.749,105.916 132.249,124.75 132.5,146C 132.067,169.271 140.401,188.437 157.5,203.5C 160.83,204.82 162.83,206.82 163.5,209.5C 162.791,210.404 161.791,210.737 160.5,210.5C 160.281,211.675 160.614,212.675 161.5,213.5C 163.45,212.628 165.45,211.961 167.5,211.5C 167.561,213.592 168.561,215.092 170.5,216C 202.693,234.229 234.359,233.229 265.5,213C 271.016,208.08 277.016,203.914 283.5,200.5C 284.647,200.818 285.481,201.484 286,202.5C 286.278,201.584 286.778,200.918 287.5,200.5C 287.369,201.376 287.702,202.043 288.5,202.5C 290.801,201.675 293.135,201.008 295.5,200.5C 295.586,201.496 295.252,202.329 294.5,203C 305.971,206.203 316.637,204.537 326.5,198C 331.532,192.633 336.865,187.633 342.5,183C 346.666,182.334 350.666,182.834 354.5,184.5C 347.312,198.157 335.979,206.324 320.5,209C 315.845,209.499 311.179,209.666 306.5,209.5C 306.5,210.5 306.5,211.5 306.5,212.5C 324.549,212.873 339.715,206.54 352,193.5C 354.193,189.77 356.36,186.103 358.5,182.5C 358.5,183.833 358.5,185.167 358.5,186.5C 370.222,187.305 379.222,182.805 385.5,173C 386.449,172.383 387.282,172.549 388,173.5C 390.216,178.241 391.55,183.241 392,188.5C 393.792,200.668 394.959,212.668 395.5,224.5C 380.777,217.944 369.944,221.944 363,236.5C 361.22,248.773 366.053,257.273 377.5,262C 386.109,263.735 393.775,261.901 400.5,256.5C 400.485,265.241 401.818,273.741 404.5,282C 404.272,282.399 403.938,282.565 403.5,282.5C 395.483,277.684 388.317,278.684 382,285.5C 378.637,299.473 384.137,305.64 398.5,304C 401.202,302.988 403.535,301.488 405.5,299.5C 407.27,303.713 406.604,307.547 403.5,311C 402.167,311.333 400.833,311.667 399.5,312C 391.782,312.188 384.115,312.854 376.5,314C 370.036,316.898 363.37,319.231 356.5,321C 349.162,321.11 341.828,321.11 334.5,321C 325.492,323.057 316.492,325.223 307.5,327.5C 301.198,326.414 294.865,326.247 288.5,327C 277.31,331.714 265.644,334.381 253.5,335C 238.45,339.072 223.45,341.906 208.5,343.5C 216.207,327.884 211.873,317.05 195.5,311C 182.598,309.449 173.598,314.616 168.5,326.5C 164.641,313.111 159.474,300.111 153,287.5C 150.098,282.326 145.931,279.659 140.5,279.5C 139.191,278.376 138.525,276.876 138.5,275C 139.455,271.529 139.622,268.029 139,264.5C 137.82,260.783 136.487,257.116 135,253.5C 131.667,248.833 128.333,244.167 125,239.5C 125.301,227.768 120.968,218.101 112,210.5C 111,208.5 110,206.5 109,204.5C 109.657,193.464 107.324,183.13 102,173.5C 100.202,163.441 97.2021,153.774 93,144.5C 89.6667,142.5 87,139.833 85,136.5C 86.143,124.056 82.8097,113.056 75,103.5C 73.9312,97.4663 72.7646,91.4663 71.5,85.5C 74.5866,76.1479 80.9199,71.4813 90.5,71.5C 84.9081,76.6093 83.0747,82.9427 85,90.5C 90.5076,103.5 100.008,107.666 113.5,103C 124.936,96.0052 127.602,86.5052 121.5,74.5C 121.489,72.9826 120.823,71.8159 119.5,71C 129.043,69.0229 138.71,68.0229 148.5,68C 154.132,66.7893 159.466,64.7893 164.5,62C 170.944,61.0852 177.277,61.4185 183.5,63C 177.04,66.0636 170.707,69.3969 164.5,73C 163.901,74.6225 163.234,76.1225 162.5,77.5 Z"/></g>
<g><path style="opacity:1" fill="#fcf255" d="M 349.5,33.5 C 350.305,45.8215 356.638,50.6548 368.5,48C 370.996,46.669 372.996,44.8356 374.5,42.5C 376.679,52.9105 379.013,63.4105 381.5,74C 382.092,79.5742 379.759,82.2409 374.5,82C 362.411,70.4591 348.411,62.2924 332.5,57.5C 332.5,56.1667 332.5,54.8333 332.5,53.5C 332.785,51.712 332.452,50.0453 331.5,48.5C 330.914,48.7093 330.414,49.0426 330,49.5C 329.281,53.1454 328.781,56.8121 328.5,60.5C 327.596,61.209 327.263,62.209 327.5,63.5C 323.5,63.5 319.5,63.5 315.5,63.5C 314.607,57.0672 314.274,50.7339 314.5,44.5C 313.914,44.7093 313.414,45.0426 313,45.5C 312.501,51.4908 312.334,57.4908 312.5,63.5C 311.448,62.4695 310.114,61.8029 308.5,61.5C 304.275,62.2647 300.108,63.2647 296,64.5C 294.467,64.2272 292.967,63.8938 291.5,63.5C 291.325,58.7661 290.658,54.0994 289.5,49.5C 288.914,49.7093 288.414,50.0426 288,50.5C 287.503,53.146 287.336,55.8127 287.5,58.5C 281.191,60.9863 275.525,64.4863 270.5,69C 266.445,71.3403 262.111,72.007 257.5,71C 247.847,65.501 237.514,62.3343 226.5,61.5C 226.768,59.901 226.434,58.5676 225.5,57.5C 224.5,57.5 223.5,57.5 222.5,57.5C 222.5,59.5 222.5,61.5 222.5,63.5C 221.539,65.2646 221.205,67.2646 221.5,69.5C 212.245,68.9117 202.912,68.9117 193.5,69.5C 188.972,56.2051 187.972,56.5384 190.5,70.5C 190.67,71.8221 190.337,72.9887 189.5,74C 183.741,75.7119 178.074,77.7119 172.5,80C 169.655,81.5453 167.655,83.712 166.5,86.5C 164.895,83.6223 163.561,80.6223 162.5,77.5C 163.234,76.1225 163.901,74.6225 164.5,73C 170.707,69.3969 177.04,66.0636 183.5,63C 177.277,61.4185 170.944,61.0852 164.5,62C 159.466,64.7893 154.132,66.7893 148.5,68C 138.71,68.0229 129.043,69.0229 119.5,71C 120.823,71.8159 121.489,72.9826 121.5,74.5C 118.327,71.0871 114.66,68.4205 110.5,66.5C 121.015,64.1922 131.682,63.0255 142.5,63C 150.253,60.9571 157.92,58.6238 165.5,56C 179.284,56.8238 192.618,54.8238 205.5,50C 222.481,48.3621 239.481,47.0287 256.5,46C 263.396,43.3872 270.396,41.0538 277.5,39C 293.104,40.7902 308.438,39.4568 323.5,35C 332.244,34.8046 340.911,34.3046 349.5,33.5 Z"/></g>
<g><path style="opacity:1" fill="#eade39" d="M 355.5,25.5 C 352.789,27.2752 350.789,29.6085 349.5,32.5C 340.429,31.7903 331.095,31.6237 321.5,32C 314.332,35.2332 306.832,37.0665 299,37.5C 291.246,36.3526 283.413,36.1859 275.5,37C 268.068,38.5877 260.735,40.5877 253.5,43C 238.122,43.3383 222.789,44.3383 207.5,46C 200.162,48.0019 192.829,50.0019 185.5,52C 178.167,52.3333 170.833,52.6667 163.5,53C 150.406,58.4936 136.739,61.1603 122.5,61C 116.974,62.9536 111.307,64.287 105.5,65C 106.737,65.2321 107.737,65.7321 108.5,66.5C 101.597,65.3219 95.597,66.9886 90.5,71.5C 80.9199,71.4813 74.5866,76.1479 71.5,85.5C 70.3882,83.4006 69.7215,81.0673 69.5,78.5C 70.8256,74.3301 73.4922,71.1634 77.5,69C 87.4369,67.2145 97.1036,64.5479 106.5,61C 119.393,58.5401 132.393,56.8735 145.5,56C 151.761,53.802 158.095,51.802 164.5,50C 172.167,49.6667 179.833,49.3333 187.5,49C 209.256,41.9001 231.589,38.5668 254.5,39C 260.833,36.6667 267.167,34.3333 273.5,32C 285.674,31.8307 297.674,31.3307 309.5,30.5C 315.303,28.7003 321.303,27.2003 327.5,26C 336.548,25.8064 345.548,25.3064 354.5,24.5C 355.107,24.6236 355.44,24.9569 355.5,25.5 Z"/></g>
<g><path style="opacity:1" fill="#fbf045" d="M 349.5,32.5 C 349.5,32.8333 349.5,33.1667 349.5,33.5C 340.911,34.3046 332.244,34.8046 323.5,35C 308.438,39.4568 293.104,40.7902 277.5,39C 270.396,41.0538 263.396,43.3872 256.5,46C 239.481,47.0287 222.481,48.3621 205.5,50C 192.618,54.8238 179.284,56.8238 165.5,56C 157.92,58.6238 150.253,60.9571 142.5,63C 131.682,63.0255 121.015,64.1922 110.5,66.5C 109.833,66.5 109.167,66.5 108.5,66.5C 107.737,65.7321 106.737,65.2321 105.5,65C 111.307,64.287 116.974,62.9536 122.5,61C 136.739,61.1603 150.406,58.4936 163.5,53C 170.833,52.6667 178.167,52.3333 185.5,52C 192.829,50.0019 200.162,48.0019 207.5,46C 222.789,44.3383 238.122,43.3383 253.5,43C 260.735,40.5877 268.068,38.5877 275.5,37C 283.413,36.1859 291.246,36.3526 299,37.5C 306.832,37.0665 314.332,35.2332 321.5,32C 331.095,31.6237 340.429,31.7903 349.5,32.5 Z"/></g>
<g><path style="opacity:1" fill="#cabe26" d="M 262.5,32.5 C 262.611,33.1174 262.944,33.6174 263.5,34C 260.226,35.2023 256.893,36.2023 253.5,37C 239.532,38.1757 225.532,38.8423 211.5,39C 208.083,40.1088 204.583,40.9421 201,41.5C 198.024,43.3819 194.858,44.8819 191.5,46C 181.876,47.1578 172.209,47.8245 162.5,48C 158.462,48.8993 154.795,50.566 151.5,53C 141.87,54.1197 132.204,54.7863 122.5,55C 114.194,56.8799 106.194,59.5465 98.5,63C 91.5972,63.7807 84.7639,64.9473 78,66.5C 73.9987,68.6692 70.832,71.6692 68.5,75.5C 66.9778,74.8091 65.9778,73.6424 65.5,72C 66.91,69.1816 68.5766,66.5149 70.5,64C 81.7732,63.3992 92.7732,61.3992 103.5,58C 109.098,56.1994 114.431,53.866 119.5,51C 128.234,50.7016 136.901,51.035 145.5,52C 150.718,50.1139 154.718,46.7805 157.5,42C 160.833,41.3333 164.167,41.3333 167.5,42C 179.051,47.5549 189.384,45.8882 198.5,37C 204.015,36.4176 209.515,36.5842 215,37.5C 219.9,36.0914 224.9,35.0914 230,34.5C 241.052,36.4013 251.885,35.7347 262.5,32.5 Z"/></g>
<g><path style="opacity:1" fill="#ded231" d="M 309.5,30.5 C 297.674,31.3307 285.674,31.8307 273.5,32C 267.167,34.3333 260.833,36.6667 254.5,39C 231.589,38.5668 209.256,41.9001 187.5,49C 179.833,49.3333 172.167,49.6667 164.5,50C 158.095,51.802 151.761,53.802 145.5,56C 132.393,56.8735 119.393,58.5401 106.5,61C 97.1036,64.5479 87.4369,67.2145 77.5,69C 73.4922,71.1634 70.8256,74.3301 69.5,78.5C 68.596,77.791 68.2627,76.791 68.5,75.5C 70.832,71.6692 73.9987,68.6692 78,66.5C 84.7639,64.9473 91.5972,63.7807 98.5,63C 106.194,59.5465 114.194,56.8799 122.5,55C 132.204,54.7863 141.87,54.1197 151.5,53C 154.795,50.566 158.462,48.8993 162.5,48C 172.209,47.8245 181.876,47.1578 191.5,46C 194.858,44.8819 198.024,43.3819 201,41.5C 204.583,40.9421 208.083,40.1088 211.5,39C 225.532,38.8423 239.532,38.1757 253.5,37C 256.893,36.2023 260.226,35.2023 263.5,34C 262.944,33.6174 262.611,33.1174 262.5,32.5C 278.073,30.6597 293.739,29.993 309.5,30.5 Z"/></g>
<g><path style="opacity:1" fill="#97a930" d="M 366.5,23.5 C 375.252,27.1804 377.918,33.5138 374.5,42.5C 372.996,44.8356 370.996,46.669 368.5,48C 356.638,50.6548 350.305,45.8215 349.5,33.5C 349.5,33.1667 349.5,32.8333 349.5,32.5C 350.789,29.6085 352.789,27.2752 355.5,25.5C 358.846,23.6764 362.513,23.0097 366.5,23.5 Z"/></g>
<g><path style="opacity:1" fill="#fef55f" d="M 71.5,98.5 C 74.3746,105.251 77.5412,111.918 81,118.5C 81.9529,125.517 82.9529,132.517 84,139.5C 86.4794,142.069 89.146,144.402 92,146.5C 95.4201,154.512 97.7535,162.845 99,171.5C 104.813,182.087 107.48,193.421 107,205.5C 108.08,207.996 109.414,210.33 111,212.5C 119.393,219.952 123.393,229.286 123,240.5C 126.333,245.167 129.667,249.833 133,254.5C 135.754,260.186 136.921,266.186 136.5,272.5C 135.698,273.952 135.198,275.618 135,277.5C 126.661,276.969 118.661,278.635 111,282.5C 108.861,281.764 106.861,280.764 105,279.5C 101.221,273.601 97.721,267.601 94.5,261.5C 97.3549,258.408 98.1882,254.741 97,250.5C 93.2556,238.502 87.0889,228.002 78.5,219C 73.8892,215.543 69.5559,215.71 65.5,219.5C 61.8651,215.693 58.3651,211.693 55,207.5C 50.1682,198.499 44.8349,189.832 39,181.5C 38.3333,178.5 38.3333,175.5 39,172.5C 43.2419,161.902 47.7419,151.568 52.5,141.5C 54.5319,158.731 62.1986,172.898 75.5,184C 81.74,185.888 85.4067,183.721 86.5,177.5C 83.9091,164.975 79.0758,153.308 72,142.5C 69.5175,139.177 66.3508,136.843 62.5,135.5C 61.7375,134.732 60.7375,134.232 59.5,134C 60.7014,133.097 61.5348,131.931 62,130.5C 64.8893,119.58 68.056,108.913 71.5,98.5 Z"/></g>
<g><path style="opacity:1" fill="#1c1a12" d="M 315.5,63.5 C 319.634,64.4849 323.968,64.8182 328.5,64.5C 328.5,63.1667 328.5,61.8333 328.5,60.5C 328.781,56.8121 329.281,53.1454 330,49.5C 330.414,49.0426 330.914,48.7093 331.5,48.5C 332.452,50.0453 332.785,51.712 332.5,53.5C 331.383,57.2949 330.717,61.2949 330.5,65.5C 334.197,66.0078 337.864,66.6745 341.5,67.5C 361.432,75.9398 374.599,90.6064 381,111.5C 385.487,132.806 381.321,152.139 368.5,169.5C 366.167,172.167 363.833,174.833 361.5,177.5C 359.75,178.659 358.75,180.326 358.5,182.5C 356.36,186.103 354.193,189.77 352,193.5C 339.715,206.54 324.549,212.873 306.5,212.5C 306.5,211.5 306.5,210.5 306.5,209.5C 311.179,209.666 315.845,209.499 320.5,209C 335.979,206.324 347.312,198.157 354.5,184.5C 356.721,180.832 357.721,176.832 357.5,172.5C 357.5,171.833 357.5,171.167 357.5,170.5C 356.808,162.328 352.474,159.494 344.5,162C 333.328,168.083 323.994,176.25 316.5,186.5C 312.895,188.472 309.895,191.139 307.5,194.5C 303.5,196.5 299.5,198.5 295.5,200.5C 293.135,201.008 290.801,201.675 288.5,202.5C 287.702,202.043 287.369,201.376 287.5,200.5C 289.284,200.107 290.95,199.441 292.5,198.5C 295.157,198.065 297.491,197.065 299.5,195.5C 301.609,194.609 303.609,193.442 305.5,192C 295.135,189.129 285.802,184.296 277.5,177.5C 259.709,206.058 234.042,217.891 200.5,213C 173.416,205.414 155.749,188.248 147.5,161.5C 141.94,135.021 148.607,112.187 167.5,93C 166.182,90.1761 164.515,87.6761 162.5,85.5C 162.34,83.847 161.674,82.5137 160.5,81.5C 159.939,78.538 158.939,75.7047 157.5,73C 157.85,71.7425 158.517,71.4092 159.5,72C 160.639,73.7804 161.639,75.6137 162.5,77.5C 163.561,80.6223 164.895,83.6223 166.5,86.5C 167.016,88.1998 168.016,89.5331 169.5,90.5C 176.262,84.732 183.928,80.732 192.5,78.5C 192.706,75.5049 192.04,72.8383 190.5,70.5C 187.972,56.5384 188.972,56.2051 193.5,69.5C 193.674,71.861 194.007,74.1944 194.5,76.5C 199.033,75.0165 203.699,74.3498 208.5,74.5C 213.167,74.5 217.833,74.5 222.5,74.5C 222.5,70.8333 222.5,67.1667 222.5,63.5C 222.5,61.5 222.5,59.5 222.5,57.5C 223.5,57.5 224.5,57.5 225.5,57.5C 225.5,63.1667 225.5,68.8333 225.5,74.5C 226.5,74.5 227.5,74.5 228.5,74.5C 242.557,77.6137 254.723,84.2803 265,94.5C 272.075,84.5905 280.575,76.2572 290.5,69.5C 290.122,67.2835 289.455,65.2835 288.5,63.5C 288.634,61.7085 288.301,60.0418 287.5,58.5C 287.336,55.8127 287.503,53.146 288,50.5C 288.414,50.0426 288.914,49.7093 289.5,49.5C 290.658,54.0994 291.325,58.7661 291.5,63.5C 291.247,65.8273 291.914,67.8273 293.5,69.5C 299.827,67.0104 306.16,65.0104 312.5,63.5C 312.334,57.4908 312.501,51.4908 313,45.5C 313.414,45.0426 313.914,44.7093 314.5,44.5C 314.274,50.7339 314.607,57.0672 315.5,63.5 Z"/></g>
<g><path style="opacity:1" fill="#cdcccc" d="M 353.5,77.5 C 374.269,92.3938 383.102,112.727 380,138.5C 377.482,152.209 371.315,163.875 361.5,173.5C 360.748,169.244 359.415,165.244 357.5,161.5C 358.675,161.281 359.675,161.614 360.5,162.5C 361.964,166.342 364.131,167.009 367,164.5C 373.614,154.029 377.781,142.696 379.5,130.5C 379.237,125.631 378.071,120.964 376,116.5C 374.821,127.894 371.488,138.561 366,148.5C 363.961,150.874 361.628,152.874 359,154.5C 358.062,156.488 357.228,158.488 356.5,160.5C 350.615,157.698 344.948,158.198 339.5,162C 336.29,164.717 332.956,167.217 329.5,169.5C 329.461,168.417 329.127,167.417 328.5,166.5C 329.025,165.808 329.692,165.308 330.5,165C 321.884,162.862 313.551,159.862 305.5,156C 301.198,151.218 297.198,146.385 293.5,141.5C 288.875,131.332 287.375,120.666 289,109.5C 291.064,105.039 293.398,100.706 296,96.5C 297.11,94.9632 298.61,94.2965 300.5,94.5C 287.669,111.013 287.169,128.013 299,145.5C 315.511,162.515 334.011,165.015 354.5,153C 369.267,141.124 374.1,125.958 369,107.5C 366.183,100.698 362.016,94.8648 356.5,90C 355.563,89.3083 354.897,89.475 354.5,90.5C 353.167,90.5 352.5,91.1667 352.5,92.5C 348.228,96.2741 343.228,97.4407 337.5,96C 336.577,93.9592 336.244,91.7925 336.5,89.5C 336.5,88.1667 336.5,86.8333 336.5,85.5C 336.833,85.5 337.167,85.5 337.5,85.5C 338.479,88.6248 338.813,91.9581 338.5,95.5C 344.494,96.3968 349.161,94.3968 352.5,89.5C 354.795,88.5682 357.129,87.7348 359.5,87C 357.676,83.6854 355.676,80.5187 353.5,77.5 Z"/></g>
<g><path style="opacity:1" fill="#4c4d4d" d="M 334.5,85.5 C 335.167,85.5 335.833,85.5 336.5,85.5C 336.5,86.8333 336.5,88.1667 336.5,89.5C 334,96.6795 336.666,99.6795 344.5,98.5C 341.374,101.099 338.207,101.099 335,98.5C 334.501,94.1794 334.334,89.8461 334.5,85.5 Z"/></g>
<g><path style="opacity:1" fill="#000202" d="M 334.5,85.5 C 334.334,89.8461 334.501,94.1794 335,98.5C 338.207,101.099 341.374,101.099 344.5,98.5C 347.957,97.6062 350.957,95.9395 353.5,93.5C 368.138,107.285 370.304,122.952 360,140.5C 348.875,153.409 335.042,157.576 318.5,153C 300.62,144.407 293.453,130.241 297,110.5C 303.474,93.2023 315.974,84.869 334.5,85.5 Z"/></g>
<g><path style="opacity:1" fill="#fcfcfc" d="M 265.5,98.5 C 281.206,116.311 286.373,136.977 281,160.5C 279.768,164.625 278.268,168.625 276.5,172.5C 274.806,171.314 273.139,171.481 271.5,173C 253.461,202.999 227.461,212.999 193.5,203C 171.951,193.135 159.118,176.635 155,153.5C 152.803,118.004 168.636,94.5041 202.5,83C 216.367,81.6853 230.034,82.6853 243.5,86C 249.731,89.2748 255.397,93.2748 260.5,98C 262.139,99.5193 263.806,99.686 265.5,98.5 Z"/></g>
<g><path style="opacity:1" fill="#c0bfbf" d="M 344.5,72.5 C 318.491,63.5333 295.658,68.5333 276,87.5C 273.375,90.6411 270.875,93.9744 268.5,97.5C 267.903,97.2648 267.57,96.7648 267.5,96C 281.43,74.0365 301.43,64.3699 327.5,67C 333.621,67.7633 339.287,69.5967 344.5,72.5 Z"/></g>
<g><path style="opacity:1" fill="#d4c82d" d="M 288.5,63.5 C 289.455,65.2835 290.122,67.2835 290.5,69.5C 280.575,76.2572 272.075,84.5905 265,94.5C 254.723,84.2803 242.557,77.6137 228.5,74.5C 232.514,74.3345 236.514,74.5012 240.5,75C 241.849,75.7724 242.682,76.9391 243,78.5C 243.725,77.9415 244.558,77.6082 245.5,77.5C 251.654,78.25 257.654,79.5834 263.5,81.5C 268.688,81.8331 272.355,79.6664 274.5,75C 279.079,72.5423 283.746,70.3757 288.5,68.5C 288.5,66.8333 288.5,65.1667 288.5,63.5 Z"/></g>
<g><path style="opacity:1" fill="#c2c1c1" d="M 250.5,86.5 C 243.966,84.8943 237.633,82.7277 231.5,80C 223.536,78.6688 215.536,78.3355 207.5,79C 200.942,80.6755 194.276,81.8422 187.5,82.5C 192.143,80.0044 197.143,78.1711 202.5,77C 219.877,74.1088 235.877,77.2755 250.5,86.5 Z"/></g>
<g><path style="opacity:1" fill="#f9ee46" d="M 225.5,57.5 C 226.434,58.5676 226.768,59.901 226.5,61.5C 237.514,62.3343 247.847,65.501 257.5,71C 262.111,72.007 266.445,71.3403 270.5,69C 275.525,64.4863 281.191,60.9863 287.5,58.5C 288.301,60.0418 288.634,61.7085 288.5,63.5C 288.5,65.1667 288.5,66.8333 288.5,68.5C 283.746,70.3757 279.079,72.5423 274.5,75C 272.355,79.6664 268.688,81.8331 263.5,81.5C 257.654,79.5834 251.654,78.25 245.5,77.5C 244.558,77.6082 243.725,77.9415 243,78.5C 242.682,76.9391 241.849,75.7724 240.5,75C 236.514,74.5012 232.514,74.3345 228.5,74.5C 227.5,74.5 226.5,74.5 225.5,74.5C 225.5,68.8333 225.5,63.1667 225.5,57.5 Z"/></g>
<g><path style="opacity:1" fill="#ededed" d="M 344.5,72.5 C 347.992,73.4097 350.992,75.0764 353.5,77.5C 355.676,80.5187 357.676,83.6854 359.5,87C 357.129,87.7348 354.795,88.5682 352.5,89.5C 349.161,94.3968 344.494,96.3968 338.5,95.5C 338.813,91.9581 338.479,88.6248 337.5,85.5C 337.539,84.4168 337.873,83.4168 338.5,82.5C 338.043,81.7025 337.376,81.3691 336.5,81.5C 322.205,79.6541 310.205,83.9875 300.5,94.5C 298.61,94.2965 297.11,94.9632 296,96.5C 293.398,100.706 291.064,105.039 289,109.5C 287.375,120.666 288.875,131.332 293.5,141.5C 289.405,138.21 287.239,133.877 287,128.5C 284.005,109.811 290.171,94.9781 305.5,84C 311.839,82.659 317.839,80.4923 323.5,77.5C 327.5,76.8333 331.5,76.1667 335.5,75.5C 308.959,68.1929 287.459,75.5262 271,97.5C 270.517,98.448 270.351,99.448 270.5,100.5C 269.599,99.7095 268.932,98.7095 268.5,97.5C 270.875,93.9744 273.375,90.6411 276,87.5C 295.658,68.5333 318.491,63.5333 344.5,72.5 Z"/></g>
<g><path style="opacity:1" fill="#4f4b10" d="M 222.5,63.5 C 222.5,67.1667 222.5,70.8333 222.5,74.5C 217.833,74.5 213.167,74.5 208.5,74.5C 212.634,73.5151 216.968,73.1818 221.5,73.5C 221.5,72.1667 221.5,70.8333 221.5,69.5C 221.205,67.2646 221.539,65.2646 222.5,63.5 Z"/></g>
<g><path style="opacity:1" fill="#fbfbfb" d="M 293.5,141.5 C 297.198,146.385 301.198,151.218 305.5,156C 313.551,159.862 321.884,162.862 330.5,165C 329.692,165.308 329.025,165.808 328.5,166.5C 329.127,167.417 329.461,168.417 329.5,169.5C 327.167,171.5 324.833,173.5 322.5,175.5C 321.883,175.389 321.383,175.056 321,174.5C 318.266,177.777 315.432,180.944 312.5,184C 305.772,185.72 299.439,184.553 293.5,180.5C 289.978,177.149 286.144,174.149 282,171.5C 280.893,172.712 280.393,172.379 280.5,170.5C 289.307,145.353 285.974,122.02 270.5,100.5C 270.351,99.448 270.517,98.448 271,97.5C 287.459,75.5262 308.959,68.1929 335.5,75.5C 331.5,76.1667 327.5,76.8333 323.5,77.5C 317.839,80.4923 311.839,82.659 305.5,84C 290.171,94.9781 284.005,109.811 287,128.5C 287.239,133.877 289.405,138.21 293.5,141.5 Z"/></g>
<g><path style="opacity:1" fill="#e1d433" d="M 221.5,69.5 C 221.5,70.8333 221.5,72.1667 221.5,73.5C 216.968,73.1818 212.634,73.5151 208.5,74.5C 203.699,74.3498 199.033,75.0165 194.5,76.5C 194.007,74.1944 193.674,71.861 193.5,69.5C 202.912,68.9117 212.245,68.9117 221.5,69.5 Z"/></g>
<g><path style="opacity:1" fill="#746d16" d="M 328.5,60.5 C 328.5,61.8333 328.5,63.1667 328.5,64.5C 323.968,64.8182 319.634,64.4849 315.5,63.5C 319.5,63.5 323.5,63.5 327.5,63.5C 327.263,62.209 327.596,61.209 328.5,60.5 Z"/></g>
<g><path style="opacity:1" fill="#d7cc30" d="M 312.5,63.5 C 306.16,65.0104 299.827,67.0104 293.5,69.5C 291.914,67.8273 291.247,65.8273 291.5,63.5C 292.967,63.8938 294.467,64.2272 296,64.5C 300.108,63.2647 304.275,62.2647 308.5,61.5C 310.114,61.8029 311.448,62.4695 312.5,63.5 Z"/></g>
<g><path style="opacity:1" fill="#fcf148" d="M 69.5,88.5 C 71.0114,91.5443 71.678,94.8776 71.5,98.5C 68.056,108.913 64.8893,119.58 62,130.5C 61.5348,131.931 60.7014,133.097 59.5,134C 60.7375,134.232 61.7375,134.732 62.5,135.5C 57.5375,134.974 54.2041,136.974 52.5,141.5C 47.7419,151.568 43.2419,161.902 39,172.5C 38.3333,175.5 38.3333,178.5 39,181.5C 44.8349,189.832 50.1682,198.499 55,207.5C 58.3651,211.693 61.8651,215.693 65.5,219.5C 65.5,219.833 65.5,220.167 65.5,220.5C 64.6909,222.292 64.1909,224.292 64,226.5C 52.4693,212.953 42.4693,198.286 34,182.5C 31.2519,175.796 32.2519,169.796 37,164.5C 39,159.167 41,153.833 43,148.5C 47.5865,140.996 51.9199,133.329 56,125.5C 59.8705,113.556 63.5372,101.556 67,89.5C 67.3333,89.8333 67.6667,90.1667 68,90.5C 68.2784,89.5842 68.7784,88.9175 69.5,88.5 Z"/></g>
<g><path style="opacity:1" fill="#98aa30" d="M 106.5,114.5 C 116.86,114.356 121.36,119.356 120,129.5C 116.677,135.908 111.511,138.075 104.5,136C 94.7112,127.893 95.3779,120.726 106.5,114.5 Z"/></g>
<g><path style="opacity:1" fill="#edecec" d="M 250.5,86.5 C 252.255,87.0722 253.922,87.9055 255.5,89C 259.099,91.9517 262.433,95.1184 265.5,98.5C 263.806,99.686 262.139,99.5193 260.5,98C 255.397,93.2748 249.731,89.2748 243.5,86C 230.034,82.6853 216.367,81.6853 202.5,83C 168.636,94.5041 152.803,118.004 155,153.5C 159.118,176.635 171.951,193.135 193.5,203C 227.461,212.999 253.461,202.999 271.5,173C 273.139,171.481 274.806,171.314 276.5,172.5C 275.833,173.833 275.167,175.167 274.5,176.5C 273.778,176.082 273.278,175.416 273,174.5C 259.181,199.841 237.347,211.341 207.5,209C 198.177,207.256 189.177,204.756 180.5,201.5C 177.109,200.471 174.443,198.471 172.5,195.5C 172.649,194.448 172.483,193.448 172,192.5C 156.231,177.199 149.564,158.533 152,136.5C 153.042,126.163 156.042,116.497 161,107.5C 165.219,104.576 168.386,100.742 170.5,96C 176.709,91.9314 182.376,87.4314 187.5,82.5C 194.276,81.8422 200.942,80.6755 207.5,79C 215.536,78.3355 223.536,78.6688 231.5,80C 237.633,82.7277 243.966,84.8943 250.5,86.5 Z"/></g>
<g><path style="opacity:1" fill="#97a930" d="M 62.5,135.5 C 66.3508,136.843 69.5175,139.177 72,142.5C 79.0758,153.308 83.9091,164.975 86.5,177.5C 85.4067,183.721 81.74,185.888 75.5,184C 62.1986,172.898 54.5319,158.731 52.5,141.5C 54.2041,136.974 57.5375,134.974 62.5,135.5 Z"/></g>
<g><path style="opacity:1" fill="#03aeca" d="M 336.5,81.5 C 337.376,81.3691 338.043,81.7025 338.5,82.5C 337.873,83.4168 337.539,84.4168 337.5,85.5C 337.167,85.5 336.833,85.5 336.5,85.5C 335.833,85.5 335.167,85.5 334.5,85.5C 315.974,84.869 303.474,93.2023 297,110.5C 293.453,130.241 300.62,144.407 318.5,153C 335.042,157.576 348.875,153.409 360,140.5C 370.304,122.952 368.138,107.285 353.5,93.5C 353.5,92.8333 353.167,92.5 352.5,92.5C 352.5,91.1667 353.167,90.5 354.5,90.5C 370.414,104.573 373.58,121.24 364,140.5C 351.63,157.289 335.464,162.456 315.5,156C 297.279,146.726 289.779,131.893 293,111.5C 300.582,91.4108 315.082,81.4108 336.5,81.5 Z"/></g>
<g><path style="opacity:1" fill="#1c2022" d="M 336.5,81.5 C 315.082,81.4108 300.582,91.4108 293,111.5C 289.779,131.893 297.279,146.726 315.5,156C 335.464,162.456 351.63,157.289 364,140.5C 373.58,121.24 370.414,104.573 354.5,90.5C 354.897,89.475 355.563,89.3083 356.5,90C 362.016,94.8648 366.183,100.698 369,107.5C 374.1,125.958 369.267,141.124 354.5,153C 334.011,165.015 315.511,162.515 299,145.5C 287.169,128.013 287.669,111.013 300.5,94.5C 310.205,83.9875 322.205,79.6541 336.5,81.5 Z"/></g>
<g><path style="opacity:1" fill="#888989" d="M 336.5,89.5 C 336.244,91.7925 336.577,93.9592 337.5,96C 343.228,97.4407 348.228,96.2741 352.5,92.5C 353.167,92.5 353.5,92.8333 353.5,93.5C 350.957,95.9395 347.957,97.6062 344.5,98.5C 336.666,99.6795 334,96.6795 336.5,89.5 Z"/></g>
<g><path style="opacity:1" fill="#f4f3f3" d="M 357.5,161.5 C 356.833,161.5 356.5,161.167 356.5,160.5C 357.228,158.488 358.062,156.488 359,154.5C 361.628,152.874 363.961,150.874 366,148.5C 371.488,138.561 374.821,127.894 376,116.5C 378.071,120.964 379.237,125.631 379.5,130.5C 377.781,142.696 373.614,154.029 367,164.5C 364.131,167.009 361.964,166.342 360.5,162.5C 359.675,161.614 358.675,161.281 357.5,161.5 Z"/></g>
<g><path style="opacity:1" fill="#d0c429" d="M 67.5,82.5 C 65.9765,86.7197 63.9765,90.8864 61.5,95C 58.9758,111.999 52.4758,127.166 42,140.5C 37.6663,151.17 33.333,161.837 29,172.5C 28.3333,174.833 28.3333,177.167 29,179.5C 32.4928,187.819 36.4928,195.819 41,203.5C 48.3333,212.833 55.6667,222.167 63,231.5C 77.1618,252.793 90.1618,274.793 102,297.5C 104.169,301.19 107.336,302.857 111.5,302.5C 111.504,298.75 112.504,298.083 114.5,300.5C 114.5,301.167 114.5,301.833 114.5,302.5C 114.167,303.167 113.833,303.833 113.5,304.5C 111.358,304.31 109.025,304.144 106.5,304C 104.571,302.172 104.238,302.505 105.5,305C 107.298,306.505 109.132,306.672 111,305.5C 111.612,307.237 110.946,308.237 109,308.5C 105.974,307.443 103.141,306.109 100.5,304.5C 100.66,302.801 100.494,301.134 100,299.5C 96.7845,292.956 92.7845,286.956 88,281.5C 85.4431,270.798 80.1098,261.798 72,254.5C 69.7813,250.729 68.1146,246.729 67,242.5C 59.3773,232.542 51.3773,222.875 43,213.5C 38.8565,207.75 35.8565,201.417 34,194.5C 31,192.167 28,189.833 25,187.5C 21.3191,183.48 19.9858,178.813 21,173.5C 25.0869,168.42 28.7536,163.087 32,157.5C 33.1062,152.231 33.7728,146.897 34,141.5C 36.4107,137.42 39.744,134.42 44,132.5C 49.5534,124.376 51.8867,115.376 51,105.5C 53.3333,102.5 55.6667,99.5 58,96.5C 59.798,91.3219 60.798,85.9885 61,80.5C 64.0775,74.2603 66.2442,74.9269 67.5,82.5 Z"/></g>
<g><path style="opacity:1" fill="#c8c7c7" d="M 187.5,82.5 C 182.376,87.4314 176.709,91.9314 170.5,96C 168.386,100.742 165.219,104.576 161,107.5C 156.042,116.497 153.042,126.163 152,136.5C 149.564,158.533 156.231,177.199 172,192.5C 172.483,193.448 172.649,194.448 172.5,195.5C 159.558,184.971 151.724,171.304 149,154.5C 145.832,127.687 154.665,105.853 175.5,89C 179.155,86.1735 183.155,84.0068 187.5,82.5 Z"/></g>
<g><path style="opacity:1" fill="#e9e9e9" d="M 214.5,100.5 C 201.092,107.573 193.092,118.573 190.5,133.5C 189.183,139.678 189.183,146.012 190.5,152.5C 191.001,154.655 192.001,156.322 193.5,157.5C 195.153,160.131 196.819,162.797 198.5,165.5C 199.436,168.959 201.436,171.793 204.5,174C 216.437,183.304 229.77,185.971 244.5,182C 267.457,174.024 277.957,157.858 276,133.5C 274.163,128.142 272.329,122.808 270.5,117.5C 269.5,117.5 268.5,117.5 267.5,117.5C 264.215,112.215 259.882,107.882 254.5,104.5C 253.893,104.624 253.56,104.957 253.5,105.5C 251.97,106.211 250.637,107.211 249.5,108.5C 250.158,103.001 253.158,100.835 258.5,102C 263.561,107.306 268.728,112.473 274,117.5C 284.412,142.353 279.245,163.186 258.5,180C 245.542,186.737 231.875,188.404 217.5,185C 197.503,177.825 187.169,163.658 186.5,142.5C 186.721,124.56 194.387,110.727 209.5,101C 211.134,100.506 212.801,100.34 214.5,100.5 Z"/></g>
<g><path style="opacity:1" fill="#b0aead" d="M 190.5,133.5 C 189.914,141.734 190.914,149.734 193.5,157.5C 192.001,156.322 191.001,154.655 190.5,152.5C 189.183,146.012 189.183,139.678 190.5,133.5 Z"/></g>
<g><path style="opacity:1" fill="#e8dc38" d="M 162.5,85.5 C 164.515,87.6761 166.182,90.1761 167.5,93C 148.607,112.187 141.94,135.021 147.5,161.5C 147.179,162.817 146.846,164.151 146.5,165.5C 148.903,170.975 150.736,176.642 152,182.5C 154.292,183.79 156.292,185.457 158,187.5C 161.627,191.73 165.127,196.064 168.5,200.5C 167.5,200.5 166.5,200.5 165.5,200.5C 165.5,201.5 165.5,202.5 165.5,203.5C 137.429,175.223 131.429,142.557 147.5,105.5C 148.822,105.67 149.989,105.337 151,104.5C 154.567,97.9051 158.401,91.5717 162.5,85.5 Z"/></g>
<g><path style="opacity:1" fill="#04b3cf" d="M 234.5,99.5 C 235.451,100.919 235.784,102.585 235.5,104.5C 234.5,104.5 233.5,104.5 232.5,104.5C 207.078,106.42 194.911,120.086 196,145.5C 199.774,163.775 210.941,173.775 229.5,175.5C 256.414,173.085 268.58,158.418 266,131.5C 264.228,122.944 259.728,116.278 252.5,111.5C 252.158,110.662 251.492,110.328 250.5,110.5C 250.5,109.833 250.167,109.5 249.5,109.5C 249.5,109.167 249.5,108.833 249.5,108.5C 250.637,107.211 251.97,106.211 253.5,105.5C 273.248,121.75 276.748,141.083 264,163.5C 252.247,177.619 237.414,182.453 219.5,178C 198.929,169.371 189.762,153.871 192,131.5C 198.03,109.964 212.196,99.2978 234.5,99.5 Z"/></g>
<g><path style="opacity:1" fill="#1e2325" d="M 234.5,99.5 C 212.196,99.2978 198.03,109.964 192,131.5C 189.762,153.871 198.929,169.371 219.5,178C 237.414,182.453 252.247,177.619 264,163.5C 276.748,141.083 273.248,121.75 253.5,105.5C 253.56,104.957 253.893,104.624 254.5,104.5C 259.882,107.882 264.215,112.215 267.5,117.5C 277.51,138.618 273.843,157.118 256.5,173C 235.086,186.226 215.752,183.726 198.5,165.5C 196.819,162.797 195.153,160.131 193.5,157.5C 190.914,149.734 189.914,141.734 190.5,133.5C 193.092,118.573 201.092,107.573 214.5,100.5C 219.34,98.8653 224.34,97.8653 229.5,97.5C 231.64,97.5561 233.306,98.2227 234.5,99.5 Z"/></g>
<g><path style="opacity:1" fill="#616161" d="M 232.5,104.5 C 233.5,104.5 234.5,104.5 235.5,104.5C 235.5,107.833 235.5,111.167 235.5,114.5C 235.611,115.117 235.944,115.617 236.5,116C 238.5,116.667 240.5,116.667 242.5,116C 245.047,113.946 247.714,112.113 250.5,110.5C 251.492,110.328 252.158,110.662 252.5,111.5C 249.042,112.735 246.042,114.735 243.5,117.5C 239.759,118.987 236.426,118.32 233.5,115.5C 232.511,111.893 232.177,108.226 232.5,104.5 Z"/></g>
<g><path style="opacity:1" fill="#bebebe" d="M 249.5,109.5 C 250.167,109.5 250.5,109.833 250.5,110.5C 247.714,112.113 245.047,113.946 242.5,116C 240.5,116.667 238.5,116.667 236.5,116C 235.944,115.617 235.611,115.117 235.5,114.5C 237.604,114.799 239.604,114.466 241.5,113.5C 244.423,112.552 247.089,111.219 249.5,109.5 Z"/></g>
<g><path style="opacity:1" fill="#000202" d="M 232.5,104.5 C 232.177,108.226 232.511,111.893 233.5,115.5C 236.426,118.32 239.759,118.987 243.5,117.5C 246.042,114.735 249.042,112.735 252.5,111.5C 259.728,116.278 264.228,122.944 266,131.5C 268.58,158.418 256.414,173.085 229.5,175.5C 210.941,173.775 199.774,163.775 196,145.5C 194.911,120.086 207.078,106.42 232.5,104.5 Z"/></g>
<g><path style="opacity:1" fill="#c4b723" d="M 357.5,170.5 C 356.778,170.082 356.278,169.416 356,168.5C 350.936,168.628 345.77,168.795 340.5,169C 333.983,172.506 328.316,177.173 323.5,183C 321.114,184.193 318.78,185.36 316.5,186.5C 323.994,176.25 333.328,168.083 344.5,162C 352.474,159.494 356.808,162.328 357.5,170.5 Z"/></g>
<g><path style="opacity:1" fill="#fcf149" d="M 398.5,226.5 C 397.5,225.833 396.5,225.167 395.5,224.5C 394.959,212.668 393.792,200.668 392,188.5C 391.55,183.241 390.216,178.241 388,173.5C 387.282,172.549 386.449,172.383 385.5,173C 379.222,182.805 370.222,187.305 358.5,186.5C 358.5,185.167 358.5,183.833 358.5,182.5C 358.75,180.326 359.75,178.659 361.5,177.5C 368.753,177.29 374.586,174.29 379,168.5C 381.264,163.079 384.764,158.746 389.5,155.5C 390.478,155.977 391.311,156.643 392,157.5C 399.418,180.196 401.585,203.196 398.5,226.5 Z"/></g>
<g><path style="opacity:1" fill="#c9c8c8" d="M 267.5,117.5 C 268.5,117.5 269.5,117.5 270.5,117.5C 272.329,122.808 274.163,128.142 276,133.5C 277.957,157.858 267.457,174.024 244.5,182C 229.77,185.971 216.437,183.304 204.5,174C 201.436,171.793 199.436,168.959 198.5,165.5C 215.752,183.726 235.086,186.226 256.5,173C 273.843,157.118 277.51,138.618 267.5,117.5 Z"/></g>
<g><path style="opacity:1" fill="#ddd132" d="M 357.5,170.5 C 357.5,171.167 357.5,171.833 357.5,172.5C 350.503,169.789 343.837,170.289 337.5,174C 331.167,179.667 324.833,185.333 318.5,191C 314.991,192.759 311.325,193.926 307.5,194.5C 309.895,191.139 312.895,188.472 316.5,186.5C 318.78,185.36 321.114,184.193 323.5,183C 328.316,177.173 333.983,172.506 340.5,169C 345.77,168.795 350.936,168.628 356,168.5C 356.278,169.416 356.778,170.082 357.5,170.5 Z"/></g>
<g><path style="opacity:1" fill="#dcdbdb" d="M 280.5,170.5 C 280.393,172.379 280.893,172.712 282,171.5C 286.144,174.149 289.978,177.149 293.5,180.5C 299.439,184.553 305.772,185.72 312.5,184C 315.432,180.944 318.266,177.777 321,174.5C 321.383,175.056 321.883,175.389 322.5,175.5C 318.75,181.751 313.583,186.417 307,189.5C 295.739,187.291 286.239,182.124 278.5,174C 278.808,172.541 279.475,171.374 280.5,170.5 Z"/></g>
<g><path style="opacity:1" fill="#f9ee47" d="M 357.5,172.5 C 357.721,176.832 356.721,180.832 354.5,184.5C 350.666,182.834 346.666,182.334 342.5,183C 336.865,187.633 331.532,192.633 326.5,198C 316.637,204.537 305.971,206.203 294.5,203C 295.252,202.329 295.586,201.496 295.5,200.5C 299.5,198.5 303.5,196.5 307.5,194.5C 311.325,193.926 314.991,192.759 318.5,191C 324.833,185.333 331.167,179.667 337.5,174C 343.837,170.289 350.503,169.789 357.5,172.5 Z"/></g>
<g><path style="opacity:1" fill="#d3d2d2" d="M 274.5,176.5 C 258.264,203.554 234.264,215.054 202.5,211C 194.342,209.457 187.008,206.291 180.5,201.5C 189.177,204.756 198.177,207.256 207.5,209C 237.347,211.341 259.181,199.841 273,174.5C 273.278,175.416 273.778,176.082 274.5,176.5 Z"/></g>
<g><path style="opacity:1" fill="#eade39" d="M 299.5,195.5 C 297.491,197.065 295.157,198.065 292.5,198.5C 292.586,197.504 292.252,196.671 291.5,196C 286.175,193.568 280.842,193.235 275.5,195C 268.372,201.926 260.372,207.926 251.5,213C 220.836,227.019 192.169,223.852 165.5,203.5C 167.5,203.5 169.5,203.5 171.5,203.5C 178.845,207.503 186.512,211.003 194.5,214C 201.894,215.822 209.394,216.988 217,217.5C 239.662,217.672 258.496,209.506 273.5,193C 276.327,191.377 279.327,190.21 282.5,189.5C 287.15,190.332 291.817,191.165 296.5,192C 298.426,192.422 299.426,193.589 299.5,195.5 Z"/></g>
<g><path style="opacity:1" fill="#e54d28" d="M 168.5,200.5 C 171.567,200.121 172.567,201.121 171.5,203.5C 169.5,203.5 167.5,203.5 165.5,203.5C 165.5,202.5 165.5,201.5 165.5,200.5C 166.5,200.5 167.5,200.5 168.5,200.5 Z"/></g>
<g><path style="opacity:1" fill="#d1c42b" d="M 147.5,161.5 C 155.749,188.248 173.416,205.414 200.5,213C 234.042,217.891 259.709,206.058 277.5,177.5C 285.802,184.296 295.135,189.129 305.5,192C 303.609,193.442 301.609,194.609 299.5,195.5C 299.426,193.589 298.426,192.422 296.5,192C 291.817,191.165 287.15,190.332 282.5,189.5C 279.327,190.21 276.327,191.377 273.5,193C 258.496,209.506 239.662,217.672 217,217.5C 209.394,216.988 201.894,215.822 194.5,214C 186.512,211.003 178.845,207.503 171.5,203.5C 172.567,201.121 171.567,200.121 168.5,200.5C 165.127,196.064 161.627,191.73 158,187.5C 156.292,185.457 154.292,183.79 152,182.5C 150.736,176.642 148.903,170.975 146.5,165.5C 146.846,164.151 147.179,162.817 147.5,161.5 Z"/></g>
<g><path style="opacity:1" fill="#ea502a" d="M 157.5,203.5 C 155.481,206.671 152.481,208.004 148.5,207.5C 148.5,206.5 148.5,205.5 148.5,204.5C 151.518,204.296 154.518,203.963 157.5,203.5 Z"/></g>
<g><path style="opacity:1" fill="#e94c29" d="M 163.5,209.5 C 165.483,209.157 166.817,209.824 167.5,211.5C 165.45,211.961 163.45,212.628 161.5,213.5C 160.614,212.675 160.281,211.675 160.5,210.5C 161.791,210.737 162.791,210.404 163.5,209.5 Z"/></g>
<g><path style="opacity:1" fill="#97a930" d="M 94.5,261.5 C 92.6208,262.341 90.6208,262.675 88.5,262.5C 75.092,251.687 67.4253,237.687 65.5,220.5C 65.5,220.167 65.5,219.833 65.5,219.5C 69.5559,215.71 73.8892,215.543 78.5,219C 87.0889,228.002 93.2556,238.502 97,250.5C 98.1882,254.741 97.3549,258.408 94.5,261.5 Z"/></g>
<g><path style="opacity:1" fill="#97a930" d="M 395.5,224.5 C 396.5,225.167 397.5,225.833 398.5,226.5C 404.762,231.709 407.095,238.376 405.5,246.5C 404.361,250.112 402.694,253.446 400.5,256.5C 393.775,261.901 386.109,263.735 377.5,262C 366.053,257.273 361.22,248.773 363,236.5C 369.944,221.944 380.777,217.944 395.5,224.5 Z"/></g>
<g><path style="opacity:0.715" fill="#070503" d="M 412.5,228.5 C 423.261,234.131 429.094,243.131 430,255.5C 431.273,264.472 431.606,273.472 431,282.5C 429.217,284.289 428.384,286.456 428.5,289C 431.082,314.148 433.415,339.315 435.5,364.5C 439.911,362.303 444.577,360.636 449.5,359.5C 456.645,360.938 458.645,364.938 455.5,371.5C 452.512,373.552 449.179,374.719 445.5,375C 450.457,377.455 453.79,381.288 455.5,386.5C 453.821,393.762 449.821,395.262 443.5,391C 442.696,389.229 441.529,387.729 440,386.5C 440.457,390.784 440.457,395.118 440,399.5C 436.341,403.115 432.341,403.448 428,400.5C 426.092,397.794 425.259,394.794 425.5,391.5C 419.746,392.188 414.079,393.355 408.5,395C 411.188,400.887 412.021,407.054 411,413.5C 410.535,414.931 409.701,416.097 408.5,417C 398.968,421.678 388.968,424.844 378.5,426.5C 378.267,453.866 377.601,481.199 376.5,508.5C 380.761,509.249 384.761,510.749 388.5,513C 389.741,515.563 391.074,518.063 392.5,520.5C 395.926,518.819 398.593,516.319 400.5,513C 410.088,507.857 418.588,509.357 426,517.5C 432.279,528.217 432.946,539.217 428,550.5C 421.635,556.126 414.135,559.126 405.5,559.5C 397.333,558.701 389.499,556.701 382,553.5C 373.547,555.312 365.381,554.478 357.5,551C 356.181,547.533 354.014,544.7 351,542.5C 346.148,532.732 346.481,523.065 352,513.5C 353.708,511.457 355.708,509.79 358,508.5C 359.444,481.525 360.611,454.525 361.5,427.5C 353.907,427.948 346.574,426.781 339.5,424C 336.112,419.785 334.779,414.951 335.5,409.5C 310.759,415.015 286.093,420.848 261.5,427C 265.773,433.93 267.273,441.43 266,449.5C 254.405,457.534 241.571,462.534 227.5,464.5C 226.145,488.502 225.812,512.502 226.5,536.5C 235.032,538.88 239.199,544.547 239,553.5C 239.414,553.957 239.914,554.291 240.5,554.5C 244.308,552.526 247.308,549.692 249.5,546C 253.481,542.927 257.981,541.094 263,540.5C 267.414,542.106 271.414,543.773 275,545.5C 279.099,551.313 280.933,557.813 280.5,565C 281.668,577.696 276.334,586.029 264.5,590C 253.491,593.293 242.491,593.293 231.5,590C 229.156,589.163 227.156,587.829 225.5,586C 221.112,585.743 216.945,585.909 213,586.5C 207.332,586.256 202.165,584.589 197.5,581.5C 195.889,578.78 195.056,575.78 195,572.5C 193.229,570.416 191.896,568.082 191,565.5C 188.428,555.114 190.928,546.281 198.5,539C 201.48,536.676 204.813,535.176 208.5,534.5C 209.251,511.174 209.585,487.841 209.5,464.5C 199.55,464.453 189.884,462.786 180.5,459.5C 177.525,452.4 178.191,445.566 182.5,439C 180.351,437.836 178.185,436.67 176,435.5C 173.238,442.198 168.738,443.698 162.5,440C 159.667,437.833 156.833,435.667 154,433.5C 153.87,437.951 153.204,442.284 152,446.5C 144.666,451.779 140.166,449.946 138.5,441C 139.78,435.632 141.447,430.465 143.5,425.5C 139.363,426.654 135.196,427.654 131,428.5C 124.779,428.092 122.446,424.758 124,418.5C 127.088,411.366 132.088,409.699 139,413.5C 139.5,413.167 140,412.833 140.5,412.5C 131.016,385.378 121.35,358.378 111.5,331.5C 112.468,329.393 112.802,327.059 112.5,324.5C 112.454,317.809 112.788,311.143 113.5,304.5C 113.833,303.833 114.167,303.167 114.5,302.5C 115.404,303.209 115.737,304.209 115.5,305.5C 114.456,314.139 114.289,322.806 115,331.5C 115.803,334.244 116.803,336.911 118,339.5C 119.789,341.229 121.956,341.896 124.5,341.5C 128.167,342.167 131.833,342.833 135.5,343.5C 134.5,343.5 133.5,343.5 132.5,343.5C 136.934,368.102 140.934,392.769 144.5,417.5C 139.453,416.956 134.453,416.456 129.5,416C 127.415,418.837 127.081,421.837 128.5,425C 130.5,425.667 132.5,425.667 134.5,425C 138.878,421.509 143.044,421.676 147,425.5C 147.667,426.833 147.667,428.167 147,429.5C 143.14,433.415 141.473,438.082 142,443.5C 145.199,447.659 147.865,447.325 150,442.5C 150.2,438.247 150.7,434.08 151.5,430C 152.833,429.333 154.167,429.333 155.5,430C 158.833,432.667 162.167,435.333 165.5,438C 170.1,439.583 171.934,438.083 171,433.5C 167.821,430.994 164.321,429.161 160.5,428C 158.473,426.604 158.14,424.938 159.5,423C 164.251,422.811 168.917,422.145 173.5,421C 174.337,419.989 174.67,418.822 174.5,417.5C 168.213,415.011 161.88,415.011 155.5,417.5C 152.738,406.761 150.405,395.761 148.5,384.5C 149.167,384.167 149.833,383.833 150.5,383.5C 160.281,388.057 170.281,392.057 180.5,395.5C 180.795,393.265 180.461,391.265 179.5,389.5C 179.158,384.452 178.492,379.452 177.5,374.5C 177.326,372.139 176.993,369.806 176.5,367.5C 177.391,368.11 178.391,368.443 179.5,368.5C 179.198,371.059 179.532,373.393 180.5,375.5C 180.844,379.894 181.51,384.228 182.5,388.5C 182.833,391.167 183.167,393.833 183.5,396.5C 184.5,396.5 185.5,396.5 186.5,396.5C 188.415,396.216 190.081,396.549 191.5,397.5C 189.236,398.219 186.903,398.552 184.5,398.5C 184.232,400.099 184.566,401.432 185.5,402.5C 185.205,404.735 185.539,406.735 186.5,408.5C 188.315,418.095 189.648,427.762 190.5,437.5C 214.395,433.023 238.062,428.023 261.5,422.5C 277.463,419.591 293.129,415.924 308.5,411.5C 318.462,409.925 328.128,407.592 337.5,404.5C 358.861,400.628 380.195,396.628 401.5,392.5C 410.559,390.755 419.559,388.755 428.5,386.5C 428.833,385.667 429.167,384.833 429.5,384C 428.47,377.2 427.803,370.366 427.5,363.5C 427.263,362.209 427.596,361.209 428.5,360.5C 428.931,364.337 429.598,368.003 430.5,371.5C 430.888,375.153 431.221,378.82 431.5,382.5C 431.393,386.088 430.393,389.255 428.5,392C 428.951,394.568 429.951,396.902 431.5,399C 433.701,399.825 435.534,399.325 437,397.5C 436.561,392.271 436.728,387.104 437.5,382C 438.833,381.333 440.167,381.333 441.5,382C 443.167,384.333 444.833,386.667 446.5,389C 448.134,389.494 449.801,389.66 451.5,389.5C 451.702,387.011 451.202,384.677 450,382.5C 446.115,379.661 442.615,376.494 439.5,373C 439.645,372.228 439.978,371.561 440.5,371C 444.555,370.768 448.555,370.268 452.5,369.5C 453.631,367.926 453.798,366.259 453,364.5C 450.263,363.39 447.429,363.223 444.5,364C 441.126,367.254 437.293,368.088 433,366.5C 431.991,364.975 431.491,363.308 431.5,361.5C 431.226,348.434 430.226,335.434 428.5,322.5C 428.303,315.974 427.636,309.641 426.5,303.5C 426.63,299.132 426.297,294.798 425.5,290.5C 425.36,288.97 424.693,287.97 423.5,287.5C 422.662,287.158 422.328,286.492 422.5,285.5C 424.229,284.883 425.729,283.883 427,282.5C 427.667,273.833 427.667,265.167 427,256.5C 425.916,248.91 423.083,242.076 418.5,236C 416.922,234.906 415.255,234.072 413.5,233.5C 412.699,231.958 412.366,230.292 412.5,228.5 Z"/></g>
<g><path style="opacity:1" fill="#b4dee7" d="M 413.5,233.5 C 415.255,234.072 416.922,234.906 418.5,236C 423.083,242.076 425.916,248.91 427,256.5C 427.667,265.167 427.667,273.833 427,282.5C 425.729,283.883 424.229,284.883 422.5,285.5C 422.543,282.09 422.043,278.757 421,275.5C 419.163,270.653 417.329,265.82 415.5,261C 418.828,251.453 418.161,242.286 413.5,233.5 Z"/></g>
<g><path style="opacity:1" fill="#1b1408" d="M 277.5,254.5 C 279.857,254.337 282.19,254.503 284.5,255C 275.08,259.146 270.414,266.479 270.5,277C 270.305,279.793 270.971,282.293 272.5,284.5C 265.255,288.143 257.922,288.31 250.5,285C 246.674,280.029 246.507,274.862 250,269.5C 257.734,261.719 266.9,256.719 277.5,254.5 Z"/></g>
<g><path style="opacity:1" fill="#e8dc38" d="M 67.5,82.5 C 68.7384,84.2143 69.405,86.2143 69.5,88.5C 68.7784,88.9175 68.2784,89.5842 68,90.5C 67.6667,90.1667 67.3333,89.8333 67,89.5C 63.5372,101.556 59.8705,113.556 56,125.5C 51.9199,133.329 47.5865,140.996 43,148.5C 41,153.833 39,159.167 37,164.5C 32.2519,169.796 31.2519,175.796 34,182.5C 42.4693,198.286 52.4693,212.953 64,226.5C 64.1909,224.292 64.6909,222.292 65.5,220.5C 67.4253,237.687 75.092,251.687 88.5,262.5C 87.9569,262.56 87.6236,262.893 87.5,263.5C 91.7326,271.63 96.2326,279.63 101,287.5C 103.166,290.507 105.999,292.507 109.5,293.5C 113.107,292.363 116.44,290.696 119.5,288.5C 120.183,288.863 120.85,289.196 121.5,289.5C 118.418,292.659 116.084,296.325 114.5,300.5C 112.504,298.083 111.504,298.75 111.5,302.5C 107.336,302.857 104.169,301.19 102,297.5C 90.1618,274.793 77.1618,252.793 63,231.5C 55.6667,222.167 48.3333,212.833 41,203.5C 36.4928,195.819 32.4928,187.819 29,179.5C 28.3333,177.167 28.3333,174.833 29,172.5C 33.333,161.837 37.6663,151.17 42,140.5C 52.4758,127.166 58.9758,111.999 61.5,95C 63.9765,90.8864 65.9765,86.7197 67.5,82.5 Z"/></g>
<g><path style="opacity:1" fill="#792f31" d="M 270.5,258.5 C 271.873,258.343 273.207,258.51 274.5,259C 268.881,266.682 266.881,275.182 268.5,284.5C 263.489,284.666 258.489,284.499 253.5,284C 250.932,282.873 249.598,280.873 249.5,278C 250.027,272.945 252.361,268.945 256.5,266C 261.101,263.202 265.768,260.702 270.5,258.5 Z"/></g>
<g><path style="opacity:1" fill="#97a930" d="M 168.5,276.5 C 181.672,275.504 187.505,281.504 186,294.5C 181.968,302.037 175.802,304.537 167.5,302C 159.625,297.883 157.458,291.716 161,283.5C 162.742,280.254 165.242,277.921 168.5,276.5 Z"/></g>
<g><path style="opacity:1" fill="#f5ea43" d="M 94.5,261.5 C 97.721,267.601 101.221,273.601 105,279.5C 106.861,280.764 108.861,281.764 111,282.5C 118.661,278.635 126.661,276.969 135,277.5C 135.198,275.618 135.698,273.952 136.5,272.5C 136.338,274.527 136.505,276.527 137,278.5C 139.28,282.447 141.947,286.113 145,289.5C 145.822,292.117 146.322,294.784 146.5,297.5C 146.649,298.552 146.483,299.552 146,300.5C 144.989,299.663 143.822,299.33 142.5,299.5C 138.803,293.472 133.47,289.806 126.5,288.5C 124.793,288.728 123.126,289.062 121.5,289.5C 120.85,289.196 120.183,288.863 119.5,288.5C 116.44,290.696 113.107,292.363 109.5,293.5C 105.999,292.507 103.166,290.507 101,287.5C 96.2326,279.63 91.7326,271.63 87.5,263.5C 87.6236,262.893 87.9569,262.56 88.5,262.5C 90.6208,262.675 92.6208,262.341 94.5,261.5 Z"/></g>
<g><path style="opacity:1" fill="#fdf34e" d="M 405.5,246.5 C 408.6,265.963 411.266,285.63 413.5,305.5C 413.428,307.56 413.095,309.56 412.5,311.5C 410.684,312.815 409.017,314.315 407.5,316C 399.247,317.638 390.914,318.805 382.5,319.5C 367.231,326.476 351.231,328.976 334.5,327C 325.635,329.013 316.969,331.513 308.5,334.5C 296.419,332.483 284.752,333.816 273.5,338.5C 255.718,342.585 237.718,345.752 219.5,348C 208.49,352.171 197.157,355.004 185.5,356.5C 180.867,355.552 176.201,354.886 171.5,354.5C 171.81,351.287 171.477,348.287 170.5,345.5C 166.813,337.443 163.646,329.109 161,320.5C 156.546,315.372 152.879,309.705 150,303.5C 149.732,298.35 148.732,293.35 147,288.5C 144.59,285.603 142.423,282.603 140.5,279.5C 145.931,279.659 150.098,282.326 153,287.5C 159.474,300.111 164.641,313.111 168.5,326.5C 167.489,337.313 171.822,345.146 181.5,350C 191.843,353.272 200.843,351.105 208.5,343.5C 223.45,341.906 238.45,339.072 253.5,335C 265.644,334.381 277.31,331.714 288.5,327C 294.865,326.247 301.198,326.414 307.5,327.5C 316.492,325.223 325.492,323.057 334.5,321C 341.828,321.11 349.162,321.11 356.5,321C 363.37,319.231 370.036,316.898 376.5,314C 384.115,312.854 391.782,312.188 399.5,312C 400.833,311.667 402.167,311.333 403.5,311C 406.604,307.547 407.27,303.713 405.5,299.5C 408.639,293.342 407.972,287.676 403.5,282.5C 403.938,282.565 404.272,282.399 404.5,282C 401.818,273.741 400.485,265.241 400.5,256.5C 402.694,253.446 404.361,250.112 405.5,246.5 Z"/></g>
<g><path style="opacity:1" fill="#e94c2a" d="M 248.5,292.5 C 251.874,294.34 255.54,295.34 259.5,295.5C 263.256,295.246 266.923,294.579 270.5,293.5C 270.5,294.5 270.5,295.5 270.5,296.5C 263.727,299.185 257.06,299.018 250.5,296C 249.177,295.184 248.511,294.017 248.5,292.5 Z"/></g>
<g><path style="opacity:1" fill="#97a930" d="M 403.5,282.5 C 407.972,287.676 408.639,293.342 405.5,299.5C 403.535,301.488 401.202,302.988 398.5,304C 384.137,305.64 378.637,299.473 382,285.5C 388.317,278.684 395.483,277.684 403.5,282.5 Z"/></g>
<g><path style="opacity:1" fill="#efe841" d="M 423.5,287.5 C 424.693,287.97 425.36,288.97 425.5,290.5C 426.297,294.798 426.63,299.132 426.5,303.5C 426.665,306.85 426.498,310.183 426,313.5C 422.004,304.918 421.171,296.252 423.5,287.5 Z"/></g>
<g><path style="opacity:1" fill="#b7aa1d" d="M 113.5,304.5 C 112.788,311.143 112.454,317.809 112.5,324.5C 111.59,322.981 110.757,321.315 110,319.5C 104.533,315.884 101.366,310.884 100.5,304.5C 103.141,306.109 105.974,307.443 109,308.5C 110.946,308.237 111.612,307.237 111,305.5C 109.132,306.672 107.298,306.505 105.5,305C 104.238,302.505 104.571,302.172 106.5,304C 109.025,304.144 111.358,304.31 113.5,304.5 Z"/></g>
<g><path style="opacity:1" fill="#97a930" d="M 208.5,343.5 C 200.843,351.105 191.843,353.272 181.5,350C 171.822,345.146 167.489,337.313 168.5,326.5C 173.598,314.616 182.598,309.449 195.5,311C 211.873,317.05 216.207,327.884 208.5,343.5 Z"/></g>
<g><path style="opacity:1" fill="#d3c72b" d="M 371.5,330.5 C 367.706,333.383 363.373,335.216 358.5,336C 349.093,335.742 339.76,335.075 330.5,334C 325.338,335.834 320.672,338.501 316.5,342C 314.256,342.906 311.923,343.406 309.5,343.5C 303.778,341.04 297.778,339.373 291.5,338.5C 304.389,339.634 317.055,337.801 329.5,333C 343.542,332.665 357.542,331.832 371.5,330.5 Z"/></g>
<g><path style="opacity:1" fill="#c8e5ec" d="M 124.5,341.5 C 121.956,341.896 119.789,341.229 118,339.5C 116.803,336.911 115.803,334.244 115,331.5C 114.289,322.806 114.456,314.139 115.5,305.5C 116.509,300.978 118.509,296.811 121.5,293C 125.471,291.087 129.471,291.087 133.5,293C 136.372,295.537 138.872,298.37 141,301.5C 144,308.833 147,316.167 150,323.5C 150.667,326.167 150.667,328.833 150,331.5C 143.537,339.98 135.037,343.313 124.5,341.5 Z"/></g>
<g><path style="opacity:1" fill="#dff2f6" d="M 124.5,299.5 C 128.839,298.846 132.673,299.846 136,302.5C 138,305.5 140,308.5 142,311.5C 142.333,310.833 142.667,310.167 143,309.5C 143.39,313.069 144.39,316.403 146,319.5C 146.499,323.152 146.665,326.818 146.5,330.5C 143.434,332.373 140.434,334.539 137.5,337C 128.505,342.022 122.672,339.522 120,329.5C 119.169,321.812 119.335,314.145 120.5,306.5C 121.105,303.703 122.438,301.37 124.5,299.5 Z"/></g>
<g><path style="opacity:1" fill="#f7fbfc" d="M 127.5,301.5 C 131.138,301.738 133.971,303.404 136,306.5C 138.332,312.666 140.165,318.999 141.5,325.5C 139.967,334.262 134.967,337.429 126.5,335C 124.106,333.048 122.606,330.548 122,327.5C 121.242,321.109 121.576,314.776 123,308.5C 123.904,305.767 125.404,303.433 127.5,301.5 Z"/></g>
<g><path style="opacity:1" fill="#d3ecf1" d="M 422.5,324.5 C 423.563,332.461 424.229,340.461 424.5,348.5C 391.336,354.444 358.169,360.444 325,366.5C 323.833,366.333 322.667,366.167 321.5,366C 319.709,363.586 318.043,361.086 316.5,358.5C 319.007,355.489 321.007,352.156 322.5,348.5C 325.985,351.484 329.318,354.651 332.5,358C 334.217,359.559 336.217,360.392 338.5,360.5C 338.263,359.209 338.596,358.209 339.5,357.5C 339.369,358.239 339.536,358.906 340,359.5C 363.093,353.818 386.593,349.651 410.5,347C 416.74,345.162 418.906,341.329 417,335.5C 415.406,333.703 413.406,332.703 411,332.5C 401.59,334.133 392.09,334.966 382.5,335C 373.417,340.973 363.417,344.473 352.5,345.5C 350.215,345.324 348.215,344.657 346.5,343.5C 346.66,341.847 347.326,340.514 348.5,339.5C 354.011,339.795 359.344,338.962 364.5,337C 371.186,333.632 377.853,330.299 384.5,327C 386.167,326.333 387.833,326.333 389.5,327C 390.551,328.385 391.884,329.385 393.5,330C 400.679,330.539 407.346,328.872 413.5,325C 416.482,324.502 419.482,324.335 422.5,324.5 Z"/></g>
<g><path style="opacity:1" fill="#eef8fa" d="M 339.5,357.5 C 341.326,352.516 343.659,347.849 346.5,343.5C 348.215,344.657 350.215,345.324 352.5,345.5C 363.417,344.473 373.417,340.973 382.5,335C 392.09,334.966 401.59,334.133 411,332.5C 413.406,332.703 415.406,333.703 417,335.5C 418.906,341.329 416.74,345.162 410.5,347C 386.593,349.651 363.093,353.818 340,359.5C 339.536,358.906 339.369,358.239 339.5,357.5 Z"/></g>
<g><path style="opacity:1" fill="#c9e8ef" d="M 345.5,338.5 C 345.34,340.153 344.674,341.486 343.5,342.5C 336.216,340.156 330.882,342.49 327.5,349.5C 324.757,347.761 322.757,345.427 321.5,342.5C 327.312,336.808 334.312,334.975 342.5,337C 343.737,337.232 344.737,337.732 345.5,338.5 Z"/></g>
<g><path style="opacity:1" fill="#f7ec44" d="M 155.5,317.5 C 157.173,318.343 158.34,319.676 159,321.5C 159.422,325.009 160.422,328.343 162,331.5C 166.675,337.357 168.841,344.024 168.5,351.5C 167.698,352.952 167.198,354.618 167,356.5C 164.455,355.478 161.955,354.312 159.5,353C 157.767,350.725 155.933,348.558 154,346.5C 153.333,343.5 153.333,340.5 154,337.5C 156.962,331.012 157.129,324.512 154.5,318C 154.728,317.601 155.062,317.435 155.5,317.5 Z"/></g>
<g><path style="opacity:1" fill="#eade39" d="M 384.5,324.5 C 380.122,326.186 375.788,328.186 371.5,330.5C 357.542,331.832 343.542,332.665 329.5,333C 317.055,337.801 304.389,339.634 291.5,338.5C 289.784,338.629 288.117,338.962 286.5,339.5C 280.677,341.566 274.677,343.066 268.5,344C 243.325,346.501 218.659,351.501 194.5,359C 186.811,359.647 179.144,359.48 171.5,358.5C 170.564,354.265 170.231,349.931 170.5,345.5C 171.477,348.287 171.81,351.287 171.5,354.5C 176.201,354.886 180.867,355.552 185.5,356.5C 197.157,355.004 208.49,352.171 219.5,348C 237.718,345.752 255.718,342.585 273.5,338.5C 284.752,333.816 296.419,332.483 308.5,334.5C 316.969,331.513 325.635,329.013 334.5,327C 351.231,328.976 367.231,326.476 382.5,319.5C 390.914,318.805 399.247,317.638 407.5,316C 409.017,314.315 410.684,312.815 412.5,311.5C 413.095,309.56 413.428,307.56 413.5,305.5C 411.266,285.63 408.6,265.963 405.5,246.5C 407.095,238.376 404.762,231.709 398.5,226.5C 401.585,203.196 399.418,180.196 392,157.5C 391.311,156.643 390.478,155.977 389.5,155.5C 384.764,158.746 381.264,163.079 379,168.5C 374.586,174.29 368.753,177.29 361.5,177.5C 363.833,174.833 366.167,172.167 368.5,169.5C 369.496,169.414 370.329,169.748 371,170.5C 373,168.5 375,166.5 377,164.5C 378.223,160.385 380.223,156.718 383,153.5C 384.391,146.326 386.391,139.326 389,132.5C 389.667,131.833 390.333,131.167 391,130.5C 393.043,131.579 394.376,133.246 395,135.5C 396.984,142.703 398.318,150.036 399,157.5C 401.991,180.1 404.324,202.767 406,225.5C 409.194,237.971 411.028,250.638 411.5,263.5C 415.725,277.665 417.725,292.165 417.5,307C 417.536,315.292 413.536,320.292 405.5,322C 398.307,322.453 391.307,323.286 384.5,324.5 Z"/></g>
<g><path style="opacity:1" fill="#dcd02d" d="M 428.5,322.5 C 430.226,335.434 431.226,348.434 431.5,361.5C 430.521,364.625 430.187,367.958 430.5,371.5C 429.598,368.003 428.931,364.337 428.5,360.5C 427.602,349.157 426.602,337.823 425.5,326.5C 425.491,324.692 425.991,323.025 427,321.5C 427.383,322.056 427.883,322.389 428.5,322.5 Z"/></g>
<g><path style="opacity:1" fill="#8e9728" d="M 120.5,345.5 C 123.625,344.521 126.958,344.187 130.5,344.5C 130.5,346.833 130.5,349.167 130.5,351.5C 126.835,350.003 123.502,348.003 120.5,345.5 Z"/></g>
<g><path style="opacity:1" fill="#f5eb43" d="M 148.5,384.5 C 150.405,395.761 152.738,406.761 155.5,417.5C 161.88,415.011 168.213,415.011 174.5,417.5C 174.67,418.822 174.337,419.989 173.5,421C 168.917,422.145 164.251,422.811 159.5,423C 158.14,424.938 158.473,426.604 160.5,428C 164.321,429.161 167.821,430.994 171,433.5C 171.934,438.083 170.1,439.583 165.5,438C 162.167,435.333 158.833,432.667 155.5,430C 154.167,429.333 152.833,429.333 151.5,430C 150.7,434.08 150.2,438.247 150,442.5C 147.865,447.325 145.199,447.659 142,443.5C 141.473,438.082 143.14,433.415 147,429.5C 147.667,428.167 147.667,426.833 147,425.5C 143.044,421.676 138.878,421.509 134.5,425C 132.5,425.667 130.5,425.667 128.5,425C 127.081,421.837 127.415,418.837 129.5,416C 134.453,416.456 139.453,416.956 144.5,417.5C 140.934,392.769 136.934,368.102 132.5,343.5C 133.5,343.5 134.5,343.5 135.5,343.5C 137.435,342.85 139.435,342.517 141.5,342.5C 144.019,356.467 146.352,370.467 148.5,384.5 Z"/></g>
<g><path style="opacity:1" fill="#a9d9e2" d="M 120.5,345.5 C 123.502,348.003 126.835,350.003 130.5,351.5C 132.959,359.92 134.459,368.587 135,377.5C 133.915,376.707 132.748,376.04 131.5,375.5C 127.828,365.482 124.161,355.482 120.5,345.5 Z"/></g>
<g><path style="opacity:1" fill="#d2c62b" d="M 146.5,297.5 C 147.791,304.763 150.791,311.43 155.5,317.5C 155.062,317.435 154.728,317.601 154.5,318C 157.129,324.512 156.962,331.012 154,337.5C 153.333,340.5 153.333,343.5 154,346.5C 155.933,348.558 157.767,350.725 159.5,353C 161.955,354.312 164.455,355.478 167,356.5C 167.198,354.618 167.698,352.952 168.5,351.5C 167.9,355.516 168.9,359.016 171.5,362C 166.706,360.557 161.706,359.557 156.5,359C 153.09,356.628 149.423,354.795 145.5,353.5C 144.631,350.22 143.964,346.887 143.5,343.5C 145.279,339.196 148.112,335.53 152,332.5C 152.914,326.97 152.247,321.637 150,316.5C 147.396,310.846 144.896,305.179 142.5,299.5C 143.822,299.33 144.989,299.663 146,300.5C 146.483,299.552 146.649,298.552 146.5,297.5 Z"/></g>
<g><path style="opacity:1" fill="#d8cc2e" d="M 286.5,339.5 C 284.027,343.752 280.36,346.585 275.5,348C 267.844,347.763 260.177,347.763 252.5,348C 249.167,350 245.833,352 242.5,354C 235.817,354.305 229.15,354.305 222.5,354C 216.92,355.122 212.253,357.788 208.5,362C 200.771,361.661 193.438,362.994 186.5,366C 179.379,367.579 174.379,365.079 171.5,358.5C 179.144,359.48 186.811,359.647 194.5,359C 218.659,351.501 243.325,346.501 268.5,344C 274.677,343.066 280.677,341.566 286.5,339.5 Z"/></g>
<g><path style="opacity:1" fill="#c2e4ea" d="M 291.5,341.5 C 291.724,346.61 289.724,350.61 285.5,353.5C 283.208,352.534 280.708,351.867 278,351.5C 274.306,352.886 270.473,353.72 266.5,354C 265.944,354.383 265.611,354.883 265.5,355.5C 263.844,353.54 262.177,351.54 260.5,349.5C 269.089,351.811 277.089,350.645 284.5,346C 285.841,342.994 288.175,341.494 291.5,341.5 Z"/></g>
<g><path style="opacity:1" fill="#191a14" d="M 142.5,299.5 C 144.896,305.179 147.396,310.846 150,316.5C 152.247,321.637 152.914,326.97 152,332.5C 148.112,335.53 145.279,339.196 143.5,343.5C 143.964,346.887 144.631,350.22 145.5,353.5C 145.557,354.609 145.89,355.609 146.5,356.5C 147.725,365.518 149.059,374.518 150.5,383.5C 149.833,383.833 149.167,384.167 148.5,384.5C 146.352,370.467 144.019,356.467 141.5,342.5C 139.435,342.517 137.435,342.85 135.5,343.5C 131.833,342.833 128.167,342.167 124.5,341.5C 135.037,343.313 143.537,339.98 150,331.5C 150.667,328.833 150.667,326.167 150,323.5C 147,316.167 144,308.833 141,301.5C 138.872,298.37 136.372,295.537 133.5,293C 129.471,291.087 125.471,291.087 121.5,293C 118.509,296.811 116.509,300.978 115.5,305.5C 115.737,304.209 115.404,303.209 114.5,302.5C 114.5,301.833 114.5,301.167 114.5,300.5C 116.084,296.325 118.418,292.659 121.5,289.5C 123.126,289.062 124.793,288.728 126.5,288.5C 133.47,289.806 138.803,293.472 142.5,299.5 Z"/></g>
<g><path style="opacity:1" fill="#ac5c15" d="M 401.5,392.5 C 380.195,396.628 358.861,400.628 337.5,404.5C 335.801,404.38 334.135,404.046 332.5,403.5C 327.588,405.073 322.588,405.573 317.5,405C 323.553,399.968 328.386,394.135 332,387.5C 332.333,382.833 332.667,378.167 333,373.5C 334.491,371.996 336.324,371.163 338.5,371C 361.214,366.415 383.881,362.082 406.5,358C 411.751,357.196 416.918,357.363 422,358.5C 424.407,366.74 425.24,375.073 424.5,383.5C 418.148,386.295 411.482,388.128 404.5,389C 403.635,390.359 402.635,391.526 401.5,392.5 Z"/></g>
<g><path style="opacity:1" fill="#f5fbfc" d="M 260.5,353.5 C 264.602,359.385 268.936,365.052 273.5,370.5C 267.815,372.928 261.815,374.761 255.5,376C 237.138,379.872 218.805,383.872 200.5,388C 194.509,388.499 188.509,388.666 182.5,388.5C 181.51,384.228 180.844,379.894 180.5,375.5C 180.5,374.167 180.5,372.833 180.5,371.5C 195.602,371.761 209.936,368.595 223.5,362C 229.627,360.92 235.794,360.086 242,359.5C 248.031,356.989 254.198,354.989 260.5,353.5 Z"/></g>
<g><path style="opacity:1" fill="#171514" d="M 422.5,324.5 C 423.778,324.782 424.778,325.449 425.5,326.5C 426.602,337.823 427.602,349.157 428.5,360.5C 427.596,361.209 427.263,362.209 427.5,363.5C 426.383,359.705 425.717,355.705 425.5,351.5C 392.18,356.53 359.013,362.53 326,369.5C 325.5,369.833 325,370.167 324.5,370.5C 326.473,373.64 328.64,376.64 331,379.5C 331.667,380.5 331.667,381.5 331,382.5C 325.659,389.337 320.159,396.004 314.5,402.5C 304.769,398.218 295.269,393.551 286,388.5C 286.881,384.717 288.381,381.05 290.5,377.5C 290,377.167 289.5,376.833 289,376.5C 256.492,383.617 223.992,390.617 191.5,397.5C 190.081,396.549 188.415,396.216 186.5,396.5C 222.056,388.549 257.723,380.549 293.5,372.5C 295.38,368.572 297.38,364.739 299.5,361C 297.977,359.146 296.144,357.646 294,356.5C 293.252,354.668 292.252,353.001 291,351.5C 285.301,358.03 279.467,364.363 273.5,370.5C 268.936,365.052 264.602,359.385 260.5,353.5C 259.4,352.395 258.733,351.062 258.5,349.5C 259.167,349.5 259.833,349.5 260.5,349.5C 262.177,351.54 263.844,353.54 265.5,355.5C 268.078,359.646 270.911,363.646 274,367.5C 278.046,362.96 281.879,358.293 285.5,353.5C 289.724,350.61 291.724,346.61 291.5,341.5C 292.167,341.5 292.833,341.5 293.5,341.5C 291.461,349.425 294.128,354.758 301.5,357.5C 304.304,358.638 307.304,358.805 310.5,358C 312.584,357.303 314.251,356.136 315.5,354.5C 319.009,351.761 320.343,348.094 319.5,343.5C 319.842,342.662 320.508,342.328 321.5,342.5C 322.757,345.427 324.757,347.761 327.5,349.5C 330.239,352.384 333.239,355.051 336.5,357.5C 339.114,352.607 341.447,347.607 343.5,342.5C 344.674,341.486 345.34,340.153 345.5,338.5C 346.791,338.263 347.791,338.596 348.5,339.5C 347.326,340.514 346.66,341.847 346.5,343.5C 343.659,347.849 341.326,352.516 339.5,357.5C 338.596,358.209 338.263,359.209 338.5,360.5C 336.217,360.392 334.217,359.559 332.5,358C 329.318,354.651 325.985,351.484 322.5,348.5C 321.007,352.156 319.007,355.489 316.5,358.5C 318.043,361.086 319.709,363.586 321.5,366C 322.667,366.167 323.833,366.333 325,366.5C 358.169,360.444 391.336,354.444 424.5,348.5C 424.229,340.461 423.563,332.461 422.5,324.5 Z"/></g>
<g><path style="opacity:1" fill="#e6f2f4" d="M 285.5,353.5 C 281.879,358.293 278.046,362.96 274,367.5C 270.911,363.646 268.078,359.646 265.5,355.5C 265.611,354.883 265.944,354.383 266.5,354C 270.473,353.72 274.306,352.886 278,351.5C 280.708,351.867 283.208,352.534 285.5,353.5 Z"/></g>
<g><path style="opacity:1" fill="#ebf4f5" d="M 343.5,342.5 C 341.447,347.607 339.114,352.607 336.5,357.5C 333.239,355.051 330.239,352.384 327.5,349.5C 330.882,342.49 336.216,340.156 343.5,342.5 Z"/></g>
<g><path style="opacity:1" fill="#9b0303" d="M 299.5,347.5 C 303.101,350.491 307.101,351.157 311.5,349.5C 312.404,348.791 312.737,347.791 312.5,346.5C 313.822,346.33 314.989,346.663 316,347.5C 316.334,349.847 316.167,352.181 315.5,354.5C 314.251,356.136 312.584,357.303 310.5,358C 307.304,358.805 304.304,358.638 301.5,357.5C 300.602,355.095 299.102,353.095 297,351.5C 296.294,349.029 296.627,346.695 298,344.5C 298.232,345.737 298.732,346.737 299.5,347.5 Z"/></g>
<g><path style="opacity:1" fill="#830d05" d="M 293.5,341.5 C 299.024,342.273 304.357,343.607 309.5,345.5C 312.976,345.45 316.31,344.783 319.5,343.5C 320.343,348.094 319.009,351.761 315.5,354.5C 316.167,352.181 316.334,349.847 316,347.5C 314.989,346.663 313.822,346.33 312.5,346.5C 312.737,347.791 312.404,348.791 311.5,349.5C 308.256,347.951 304.756,346.618 301,345.5C 299.97,345.836 299.47,346.503 299.5,347.5C 298.732,346.737 298.232,345.737 298,344.5C 296.627,346.695 296.294,349.029 297,351.5C 299.102,353.095 300.602,355.095 301.5,357.5C 294.128,354.758 291.461,349.425 293.5,341.5 Z"/></g>
<g><path style="opacity:1" fill="#d58584" d="M 311.5,349.5 C 307.101,351.157 303.101,350.491 299.5,347.5C 299.47,346.503 299.97,345.836 301,345.5C 304.756,346.618 308.256,347.951 311.5,349.5 Z"/></g>
<g><path style="opacity:1" fill="#cce9ee" d="M 258.5,349.5 C 258.733,351.062 259.4,352.395 260.5,353.5C 254.198,354.989 248.031,356.989 242,359.5C 235.794,360.086 229.627,360.92 223.5,362C 209.936,368.595 195.602,371.761 180.5,371.5C 180.5,372.833 180.5,374.167 180.5,375.5C 179.532,373.393 179.198,371.059 179.5,368.5C 182.518,368.665 185.518,368.498 188.5,368C 195.067,364.95 202.067,363.617 209.5,364C 214.335,359.583 220.001,356.749 226.5,355.5C 236.538,358.254 245.538,356.421 253.5,350C 255.134,349.506 256.801,349.34 258.5,349.5 Z"/></g>
<g><path style="opacity:1" fill="#d8edf1" d="M 186.5,396.5 C 185.5,396.5 184.5,396.5 183.5,396.5C 183.167,393.833 182.833,391.167 182.5,388.5C 188.509,388.666 194.509,388.499 200.5,388C 218.805,383.872 237.138,379.872 255.5,376C 261.815,374.761 267.815,372.928 273.5,370.5C 279.467,364.363 285.301,358.03 291,351.5C 292.252,353.001 293.252,354.668 294,356.5C 296.144,357.646 297.977,359.146 299.5,361C 297.38,364.739 295.38,368.572 293.5,372.5C 257.723,380.549 222.056,388.549 186.5,396.5 Z"/></g>
<g><path style="opacity:1" fill="#cf0000" d="M 314.5,373.5 C 316.104,374.287 316.771,375.62 316.5,377.5C 319.405,378.106 321.071,379.939 321.5,383C 320.591,386.556 319.591,390.056 318.5,393.5C 315.681,395.097 312.681,395.597 309.5,395C 304.107,393.484 300.107,390.318 297.5,385.5C 299.381,380.955 301.881,376.288 305,371.5C 307.321,374.917 309.988,375.25 313,372.5C 313.383,373.056 313.883,373.389 314.5,373.5 Z"/></g>
<g><path style="opacity:1" fill="#a00a08" d="M 318.5,393.5 C 319.591,390.056 320.591,386.556 321.5,383C 321.071,379.939 319.405,378.106 316.5,377.5C 316.771,375.62 316.104,374.287 314.5,373.5C 312.927,369.541 309.927,367.875 305.5,368.5C 305.649,367.448 305.483,366.448 305,365.5C 304.667,365.833 304.333,366.167 304,366.5C 301.056,371.774 297.723,376.774 294,381.5C 292.877,385.151 294.044,387.651 297.5,389C 298.305,390.113 298.972,391.279 299.5,392.5C 295.372,391.271 291.705,389.271 288.5,386.5C 293,378.167 297.5,369.833 302,361.5C 305.436,360.714 308.936,360.047 312.5,359.5C 318.683,365.875 324.016,373.042 328.5,381C 325.696,385.632 322.363,389.799 318.5,393.5 Z"/></g>
<g><path style="opacity:1" fill="#ecf6f8" d="M 177.5,374.5 C 178.492,379.452 179.158,384.452 179.5,389.5C 179.631,390.376 179.298,391.043 178.5,391.5C 172.399,389.64 166.399,387.474 160.5,385C 159.107,383.829 158.273,382.329 158,380.5C 152.766,378.369 151.266,374.702 153.5,369.5C 155.475,367.679 157.809,366.679 160.5,366.5C 164.578,367.186 168.578,368.186 172.5,369.5C 174.868,370.577 176.535,372.244 177.5,374.5 Z"/></g>
<g><path style="opacity:1" fill="#4a1a00" d="M 132.5,380.5 C 133.542,379.209 134.708,379.209 136,380.5C 137.327,385.12 137.993,389.787 138,394.5C 136.632,389.547 134.799,384.88 132.5,380.5 Z"/></g>
<g><path style="opacity:1" fill="#9b5110" d="M 308.5,411.5 C 293.129,415.924 277.463,419.591 261.5,422.5C 261.884,420.707 263.05,419.707 265,419.5C 280.372,416.733 295.205,412.399 309.5,406.5C 302.891,401.697 295.558,398.197 287.5,396C 284.938,393.711 283.271,390.877 282.5,387.5C 281.167,387.167 279.833,386.833 278.5,386.5C 247.94,392.852 217.273,398.352 186.5,403C 186.854,404.626 186.854,406.459 186.5,408.5C 185.539,406.735 185.205,404.735 185.5,402.5C 185.251,399.425 186.585,398.758 189.5,400.5C 205.516,397.462 221.516,393.962 237.5,390C 251.983,389.224 266.316,387.391 280.5,384.5C 282.029,384.529 283.196,385.196 284,386.5C 284.562,389.872 286.062,392.705 288.5,395C 297.149,398.3 305.816,401.633 314.5,405C 314.833,405.333 315.167,405.667 315.5,406C 313.35,407.411 311.016,408.245 308.5,408.5C 308.5,409.5 308.5,410.5 308.5,411.5 Z"/></g>
<g><path style="opacity:1" fill="#c6e3e9" d="M 146.5,356.5 C 149.757,357.462 152.757,358.962 155.5,361C 162.929,361.866 169.929,364.033 176.5,367.5C 176.993,369.806 177.326,372.139 177.5,374.5C 176.535,372.244 174.868,370.577 172.5,369.5C 168.578,368.186 164.578,367.186 160.5,366.5C 157.809,366.679 155.475,367.679 153.5,369.5C 151.266,374.702 152.766,378.369 158,380.5C 158.273,382.329 159.107,383.829 160.5,385C 166.399,387.474 172.399,389.64 178.5,391.5C 179.298,391.043 179.631,390.376 179.5,389.5C 180.461,391.265 180.795,393.265 180.5,395.5C 170.281,392.057 160.281,388.057 150.5,383.5C 149.059,374.518 147.725,365.518 146.5,356.5 Z"/></g>
<g><path style="opacity:1" fill="#ad5e16" d="M 261.5,422.5 C 238.062,428.023 214.395,433.023 190.5,437.5C 189.648,427.762 188.315,418.095 186.5,408.5C 186.854,406.459 186.854,404.626 186.5,403C 217.273,398.352 247.94,392.852 278.5,386.5C 279.833,386.833 281.167,387.167 282.5,387.5C 283.271,390.877 284.938,393.711 287.5,396C 295.558,398.197 302.891,401.697 309.5,406.5C 295.205,412.399 280.372,416.733 265,419.5C 263.05,419.707 261.884,420.707 261.5,422.5 Z"/></g>
<g><path style="opacity:1" fill="#f1e63b" d="M 431.5,361.5 C 431.491,363.308 431.991,364.975 433,366.5C 437.293,368.088 441.126,367.254 444.5,364C 447.429,363.223 450.263,363.39 453,364.5C 453.798,366.259 453.631,367.926 452.5,369.5C 448.555,370.268 444.555,370.768 440.5,371C 439.978,371.561 439.645,372.228 439.5,373C 442.615,376.494 446.115,379.661 450,382.5C 451.202,384.677 451.702,387.011 451.5,389.5C 449.801,389.66 448.134,389.494 446.5,389C 444.833,386.667 443.167,384.333 441.5,382C 440.167,381.333 438.833,381.333 437.5,382C 436.728,387.104 436.561,392.271 437,397.5C 435.534,399.325 433.701,399.825 431.5,399C 429.951,396.902 428.951,394.568 428.5,392C 430.393,389.255 431.393,386.088 431.5,382.5C 431.221,378.82 430.888,375.153 430.5,371.5C 430.187,367.958 430.521,364.625 431.5,361.5 Z"/></g>
<g><path style="opacity:1" fill="#b40102" d="M 314.5,373.5 C 313.883,373.389 313.383,373.056 313,372.5C 309.988,375.25 307.321,374.917 305,371.5C 301.881,376.288 299.381,380.955 297.5,385.5C 300.107,390.318 304.107,393.484 309.5,395C 312.681,395.597 315.681,395.097 318.5,393.5C 317.627,395.886 316.127,397.886 314,399.5C 309.03,397.264 304.196,394.93 299.5,392.5C 298.972,391.279 298.305,390.113 297.5,389C 294.044,387.651 292.877,385.151 294,381.5C 297.723,376.774 301.056,371.774 304,366.5C 304.333,366.167 304.667,365.833 305,365.5C 305.483,366.448 305.649,367.448 305.5,368.5C 309.927,367.875 312.927,369.541 314.5,373.5 Z"/></g>
<g><path style="opacity:1" fill="#834008" d="M 181.5,399.5 C 173.021,398.449 164.688,396.782 156.5,394.5C 156.185,397.211 156.852,399.544 158.5,401.5C 157.235,402.514 156.569,404.014 156.5,406C 156.667,407.5 156.833,409 157,410.5C 164.095,412.787 163.595,414.12 155.5,414.5C 154.647,405.425 153.314,396.425 151.5,387.5C 161.803,390.93 171.803,394.93 181.5,399.5 Z"/></g>
<g><path style="opacity:1" fill="#ab5c15" d="M 404.5,395.5 C 404.897,400.959 404.397,406.292 403,411.5C 390.949,418.263 377.949,421.597 364,421.5C 357.73,421.446 351.564,420.613 345.5,419C 341.601,415.815 339.934,411.649 340.5,406.5C 360.968,402.44 381.468,398.44 402,394.5C 403.07,394.528 403.903,394.861 404.5,395.5 Z"/></g>
<g><path style="opacity:1" fill="#060200" d="M 241.5,398.5 C 243.833,398.5 246.167,398.5 248.5,398.5C 249.167,402.833 249.833,407.167 250.5,411.5C 236.745,414.118 223.078,417.118 209.5,420.5C 209.129,416.351 208.129,412.351 206.5,408.5C 206.709,407.914 207.043,407.414 207.5,407C 219.087,404.69 230.42,401.856 241.5,398.5 Z"/></g>
<g><path style="opacity:1" fill="#89440a" d="M 427.5,363.5 C 427.803,370.366 428.47,377.2 429.5,384C 429.167,384.833 428.833,385.667 428.5,386.5C 419.559,388.755 410.559,390.755 401.5,392.5C 402.635,391.526 403.635,390.359 404.5,389C 411.482,388.128 418.148,386.295 424.5,383.5C 425.24,375.073 424.407,366.74 422,358.5C 416.918,357.363 411.751,357.196 406.5,358C 383.881,362.082 361.214,366.415 338.5,371C 336.324,371.163 334.491,371.996 333,373.5C 332.667,378.167 332.333,382.833 332,387.5C 328.386,394.135 323.553,399.968 317.5,405C 322.588,405.573 327.588,405.073 332.5,403.5C 334.135,404.046 335.801,404.38 337.5,404.5C 328.128,407.592 318.462,409.925 308.5,411.5C 308.5,410.5 308.5,409.5 308.5,408.5C 311.016,408.245 313.35,407.411 315.5,406C 315.167,405.667 314.833,405.333 314.5,405C 305.816,401.633 297.149,398.3 288.5,395C 286.062,392.705 284.562,389.872 284,386.5C 283.196,385.196 282.029,384.529 280.5,384.5C 266.316,387.391 251.983,389.224 237.5,390C 221.516,393.962 205.516,397.462 189.5,400.5C 186.585,398.758 185.251,399.425 185.5,402.5C 184.566,401.432 184.232,400.099 184.5,398.5C 186.903,398.552 189.236,398.219 191.5,397.5C 223.992,390.617 256.492,383.617 289,376.5C 289.5,376.833 290,377.167 290.5,377.5C 288.381,381.05 286.881,384.717 286,388.5C 295.269,393.551 304.769,398.218 314.5,402.5C 320.159,396.004 325.659,389.337 331,382.5C 331.667,381.5 331.667,380.5 331,379.5C 328.64,376.64 326.473,373.64 324.5,370.5C 325,370.167 325.5,369.833 326,369.5C 359.013,362.53 392.18,356.53 425.5,351.5C 425.717,355.705 426.383,359.705 427.5,363.5 Z"/></g>
<g><path style="opacity:1" fill="#050200" d="M 379.5,369.5 C 380.5,369.5 381.5,369.5 382.5,369.5C 382.724,373.179 383.058,376.846 383.5,380.5C 371.06,383.027 358.726,386.027 346.5,389.5C 345.914,389.291 345.414,388.957 345,388.5C 343.544,384.985 343.378,381.485 344.5,378C 356.408,375.605 368.075,372.772 379.5,369.5 Z"/></g>
<g><path style="opacity:1" fill="#9c5211" d="M 181.5,399.5 C 184.406,411.078 186.739,422.912 188.5,435C 188.167,435.833 187.833,436.667 187.5,437.5C 178.681,433.59 170.014,429.423 161.5,425C 168.838,425.778 175.005,423.612 180,418.5C 180.814,416.098 180.647,413.765 179.5,411.5C 172.352,408.426 165.352,405.092 158.5,401.5C 156.852,399.544 156.185,397.211 156.5,394.5C 164.688,396.782 173.021,398.449 181.5,399.5 Z"/></g>
<g><path style="opacity:1" fill="#87430a" d="M 404.5,395.5 C 408.441,401.024 409.274,407.024 407,413.5C 386.863,423.996 365.697,426.829 343.5,422C 341.667,421.5 340.5,420.333 340,418.5C 339.188,414.311 339.355,410.311 340.5,406.5C 339.934,411.649 341.601,415.815 345.5,419C 351.564,420.613 357.73,421.446 364,421.5C 377.949,421.597 390.949,418.263 403,411.5C 404.397,406.292 404.897,400.959 404.5,395.5 Z"/></g>
<g><path style="opacity:1" fill="#ac5d15" d="M 254.5,427.5 C 256.176,431.042 258.009,434.709 260,438.5C 261.724,443.731 260.224,447.565 255.5,450C 232.658,459.447 209.325,460.947 185.5,454.5C 185.593,449.505 186.593,444.839 188.5,440.5C 210.45,435.845 232.45,431.512 254.5,427.5 Z"/></g>
<g><path style="opacity:1" fill="#f4ea46" d="M 364.5,426.5 C 368.167,426.5 371.833,426.5 375.5,426.5C 375.484,439.517 374.984,452.517 374,465.5C 370.738,468.077 367.405,468.077 364,465.5C 364.203,452.514 364.369,439.514 364.5,426.5 Z"/></g>
<g><path style="opacity:1" fill="#89440a" d="M 254.5,427.5 C 256.23,426.088 257.73,426.422 259,428.5C 262.22,434.479 263.553,440.812 263,447.5C 238.721,461.75 212.888,465.25 185.5,458C 181.708,455.947 180.542,452.781 182,448.5C 183,445.833 184,443.167 185,440.5C 186.292,439.209 187.458,439.209 188.5,440.5C 186.593,444.839 185.593,449.505 185.5,454.5C 209.325,460.947 232.658,459.447 255.5,450C 260.224,447.565 261.724,443.731 260,438.5C 258.009,434.709 256.176,431.042 254.5,427.5 Z"/></g>
<g><path style="opacity:1" fill="#fdf34c" d="M 222.5,504.5 C 219.728,505.767 217.061,505.767 214.5,504.5C 213.519,491.246 213.186,477.913 213.5,464.5C 216.5,464.5 219.5,464.5 222.5,464.5C 222.5,477.833 222.5,491.167 222.5,504.5 Z"/></g>
<g><path style="opacity:1" fill="#f9f9fa" d="M 372.5,469.5 C 373.483,473.298 373.817,477.298 373.5,481.5C 370.061,481.747 366.728,481.414 363.5,480.5C 363.176,476.445 363.509,472.445 364.5,468.5C 367.084,469.393 369.751,469.726 372.5,469.5 Z"/></g>
<g><path style="opacity:1" fill="#686868" d="M 372.5,469.5 C 372.56,468.957 372.893,468.624 373.5,468.5C 374.811,472.984 374.811,477.317 373.5,481.5C 373.817,477.298 373.483,473.298 372.5,469.5 Z"/></g>
<g><path style="opacity:1" fill="#3936a3" d="M 363.5,480.5 C 366.728,481.414 370.061,481.747 373.5,481.5C 373.5,482.5 373.5,483.5 373.5,484.5C 369.766,484.677 366.099,484.344 362.5,483.5C 362.263,482.209 362.596,481.209 363.5,480.5 Z"/></g>
<g><path style="opacity:1" fill="#f7f1f1" d="M 362.5,483.5 C 366.099,484.344 369.766,484.677 373.5,484.5C 373.5,487.833 373.5,491.167 373.5,494.5C 369.785,494.577 366.119,494.244 362.5,493.5C 362.5,490.167 362.5,486.833 362.5,483.5 Z"/></g>
<g><path style="opacity:1" fill="#9d931c" d="M 222.5,504.5 C 222.5,491.167 222.5,477.833 222.5,464.5C 219.5,464.5 216.5,464.5 213.5,464.5C 213.186,477.913 213.519,491.246 214.5,504.5C 212.518,491.208 211.851,477.541 212.5,463.5C 216.167,463.5 219.833,463.5 223.5,463.5C 223.829,477.344 223.496,491.01 222.5,504.5 Z"/></g>
<g><path style="opacity:1" fill="#e53727" d="M 362.5,493.5 C 366.119,494.244 369.785,494.577 373.5,494.5C 373.5,495.167 373.5,495.833 373.5,496.5C 369.731,496.756 366.064,496.423 362.5,495.5C 362.5,494.833 362.5,494.167 362.5,493.5 Z"/></g>
<g><path style="opacity:1" fill="#faf8f7" d="M 362.5,495.5 C 366.064,496.423 369.731,496.756 373.5,496.5C 373.5,503.833 373.5,511.167 373.5,518.5C 369.894,518.789 366.394,518.456 363,517.5C 362.5,510.174 362.334,502.841 362.5,495.5 Z"/></g>
<g><path style="opacity:1" fill="#f2f2f5" d="M 222.5,518.5 C 219.098,518.658 215.764,518.324 212.5,517.5C 212.177,513.774 212.511,510.107 213.5,506.5C 216.421,507.407 219.421,507.74 222.5,507.5C 222.5,511.167 222.5,514.833 222.5,518.5 Z"/></g>
<g><path style="opacity:1" fill="#161e98" d="M 212.5,517.5 C 215.764,518.324 219.098,518.658 222.5,518.5C 222.5,519.167 222.5,519.833 222.5,520.5C 219.061,520.747 215.728,520.414 212.5,519.5C 212.5,518.833 212.5,518.167 212.5,517.5 Z"/></g>
<g><path style="opacity:1" fill="#f1eef0" d="M 212.5,519.5 C 215.728,520.414 219.061,520.747 222.5,520.5C 222.5,523.167 222.5,525.833 222.5,528.5C 219.167,528.5 215.833,528.5 212.5,528.5C 212.5,525.5 212.5,522.5 212.5,519.5 Z"/></g>
<g><path style="opacity:1" fill="#757575" d="M 406.5,513.5 C 408.199,513.34 409.866,513.506 411.5,514C 405.742,515.752 401.075,519.085 397.5,524C 394.141,526.707 390.474,527.541 386.5,526.5C 389.534,525.433 392.534,524.266 395.5,523C 398.769,519.221 402.436,516.054 406.5,513.5 Z"/></g>
<g><path style="opacity:1" fill="#5c5c5c" d="M 357.5,512.5 C 358.043,512.56 358.376,512.893 358.5,513.5C 355.483,517.369 353.316,521.702 352,526.5C 351.378,520.866 353.211,516.199 357.5,512.5 Z"/></g>
<g><path style="opacity:1" fill="#484848" d="M 374.5,519.5 C 375.552,519.351 376.552,519.517 377.5,520C 373.315,523.109 368.648,524.109 363.5,523C 363.043,522.586 362.709,522.086 362.5,521.5C 366.647,520.833 370.647,520.166 374.5,519.5 Z"/></g>
<g><path style="opacity:1" fill="#e14736" d="M 212.5,528.5 C 215.833,528.5 219.167,528.5 222.5,528.5C 222.672,529.492 222.338,530.158 221.5,530.5C 218.396,531.775 215.396,531.775 212.5,530.5C 212.5,529.833 212.5,529.167 212.5,528.5 Z"/></g>
<g><path style="opacity:1" fill="#eeeeee" d="M 212.5,530.5 C 215.396,531.775 218.396,531.775 221.5,530.5C 221.666,536.509 221.499,542.509 221,548.5C 217.571,550.013 214.571,549.347 212,546.5C 211.183,540.984 211.349,535.65 212.5,530.5 Z"/></g>
<g><path style="opacity:1" fill="#747474" d="M 206.5,537.5 C 208.028,537.517 208.528,538.184 208,539.5C 201.969,542.533 197.635,547.2 195,553.5C 194.262,550.788 194.929,548.455 197,546.5C 199.406,542.592 202.572,539.592 206.5,537.5 Z"/></g>
<g><path style="opacity:1" fill="#454545" d="M 222.5,549.5 C 224.842,549.775 224.842,550.608 222.5,552C 218.967,552.903 215.633,552.57 212.5,551C 214.326,550.708 216.159,550.875 218,551.5C 219.876,551.475 221.376,550.809 222.5,549.5 Z"/></g>
<g><path style="opacity:1" fill="#787878" d="M 258.5,544.5 C 260.924,544.192 263.257,544.526 265.5,545.5C 261.63,546.074 257.964,547.241 254.5,549C 251.5,552 248.5,555 245.5,558C 241.693,560.33 237.693,560.83 233.5,559.5C 241.715,558.787 248.048,554.954 252.5,548C 254.727,547.059 256.727,545.892 258.5,544.5 Z"/></g>
</svg>
