<?xml version="1.0" encoding="UTF-8"?>
<!DOCTYPE svg PUBLIC "-//W3C//DTD SVG 1.1//EN" "http://www.w3.org/Graphics/SVG/1.1/DTD/svg11.dtd">
<svg xmlns="http://www.w3.org/2000/svg" version="1.1" width="207px" height="300px" style="shape-rendering:geometricPrecision; text-rendering:geometricPrecision; image-rendering:optimizeQuality; fill-rule:evenodd; clip-rule:evenodd" xmlns:xlink="http://www.w3.org/1999/xlink">
<g><path style="opacity:1" fill="#d2e16c" d="M 48.5,175.5 C 48.7489,171.542 48.0823,167.876 46.5,164.5C 47.0255,159.537 45.0255,156.204 40.5,154.5C 35.0085,154.605 31.3418,157.605 29.5,163.5C 28.5041,163.586 27.6708,163.252 27,162.5C 26.7932,154.15 25.1265,146.15 22,138.5C 21.057,130.154 20.3903,121.821 20,113.5C 14.356,107.919 13.356,101.585 17,94.5C 17.6667,91.8333 17.6667,89.1667 17,86.5C 14.8209,80.8318 11.6542,75.8318 7.5,71.5C 9.2328,67.3046 9.7328,62.9712 9,58.5C 4.2589,54.8326 1.92556,50.1659 2,44.5C 4.92539,42.2861 7.75872,39.9528 10.5,37.5C 11.8655,34.3134 12.6988,30.9801 13,27.5C 15.7837,23.5213 19.6171,21.1879 24.5,20.5C 25.3253,16.8776 25.8253,13.211 26,9.5C 27.8153,7.59506 29.8153,5.9284 32,4.5C 34.6547,10.4935 37.3214,16.4935 40,22.5C 38.1081,34.731 41.1081,45.3976 49,54.5C 49.7242,61.7516 49.2242,68.9183 47.5,76C 48.9962,82.3414 51.6628,88.1747 55.5,93.5C 52.7442,99.5556 51.9109,105.889 53,112.5C 55.6246,116.62 57.1246,121.12 57.5,126C 57.0069,128.819 55.8403,131.319 54,133.5C 52.5158,139.765 52.1824,146.098 53,152.5C 58.3231,160.891 58.8231,169.558 54.5,178.5C 52.4664,177.441 50.4664,176.441 48.5,175.5 Z"/></g>
<g><path style="opacity:0.251" fill="#5b6b1e" d="M 33.5,-0.5 C 35.8333,-0.5 38.1667,-0.5 40.5,-0.5C 45.6454,4.1486 51.6454,5.98193 58.5,5C 62.2585,3.12073 65.9252,1.28739 69.5,-0.5C 72.5,-0.5 75.5,-0.5 78.5,-0.5C 83.1751,1.65973 87.1751,4.8264 90.5,9C 95.9401,10.1737 100.94,9.17374 105.5,6C 110.167,5.33333 114.833,5.33333 119.5,6C 124.837,12.006 131.503,14.006 139.5,12C 143.689,10.2353 148.022,9.06861 152.5,8.5C 156.853,8.32784 160.186,10.1612 162.5,14C 168.069,14.7759 173.402,13.9425 178.5,11.5C 185.141,12.9864 191.474,15.3198 197.5,18.5C 200.565,17.9359 203.565,17.2692 206.5,16.5C 206.5,19.5 206.5,22.5 206.5,25.5C 203.788,27.7135 202.121,30.5469 201.5,34C 202.542,38.0874 203.876,42.0874 205.5,46C 204.387,53.9001 202.387,61.5668 199.5,69C 204.947,79.8403 204.447,90.3403 198,100.5C 197.063,105.403 197.73,110.07 200,114.5C 200.667,116.833 200.667,119.167 200,121.5C 197.293,126.416 194.459,131.249 191.5,136C 191.833,136.333 192.167,136.667 192.5,137C 191.691,142.417 191.191,147.917 191,153.5C 189.328,157.519 187.161,161.186 184.5,164.5C 184.405,167.692 185.071,170.692 186.5,173.5C 184.946,174.914 183.612,176.581 182.5,178.5C 181.675,179.386 180.675,179.719 179.5,179.5C 179.167,179.5 178.833,179.5 178.5,179.5C 171.707,177.871 165.04,178.537 158.5,181.5C 158.158,180.662 157.492,180.328 156.5,180.5C 149.977,178.565 143.311,178.065 136.5,179C 135.142,179.934 133.808,180.768 132.5,181.5C 130.585,181.784 128.919,181.451 127.5,180.5C 134.25,178.186 141.25,176.853 148.5,176.5C 152.218,177.295 155.885,178.295 159.5,179.5C 166.649,176.807 173.982,175.974 181.5,177C 183.772,172.7 184.106,168.2 182.5,163.5C 184.918,159.665 187.085,155.665 189,151.5C 189.333,145.833 189.667,140.167 190,134.5C 192.333,130.5 194.667,126.5 197,122.5C 196.07,114.585 195.737,106.585 196,98.5C 199.854,94.8246 201.354,90.3246 200.5,85C 200.27,79.3685 199.27,73.8685 197.5,68.5C 199.804,61.0862 201.804,53.5862 203.5,46C 201.296,42.2652 199.962,38.2652 199.5,34C 199.248,30.0034 200.748,26.8368 204,24.5C 204.494,22.8659 204.66,21.1992 204.5,19.5C 198.685,21.4412 193.352,20.6078 188.5,17C 185.396,15.9322 182.229,15.0989 179,14.5C 173.269,16.2634 167.436,16.7634 161.5,16C 159.261,12.4012 156.094,10.5679 152,10.5C 146.072,12.9018 139.905,14.5685 133.5,15.5C 130.5,15 127.5,14.5 124.5,14C 117.806,6.46567 110.14,5.46567 101.5,11C 97.5,11.6667 93.5,11.6667 89.5,11C 84.4256,4.1237 77.7589,1.1237 69.5,2C 64.979,4.42642 60.3124,6.59309 55.5,8.5C 49.5986,7.71545 44.2653,5.54879 39.5,2C 37.8659,1.50649 36.1992,1.33982 34.5,1.5C 34.3367,3.85684 34.5034,6.19018 35,8.5C 38.0543,11.9419 40.0543,15.9419 41,20.5C 41.3333,27.5 41.6667,34.5 42,41.5C 45,45.8333 48,50.1667 51,54.5C 50.5948,62.8133 50.5948,71.1466 51,79.5C 52.7526,84.1726 54.9192,88.6726 57.5,93C 55.5562,97.109 54.5562,101.442 54.5,106C 55.9821,111.798 57.3154,117.631 58.5,123.5C 56.6019,129.654 55.6019,135.987 55.5,142.5C 55.6667,145.5 55.8333,148.5 56,151.5C 57.4548,155.411 58.6215,159.411 59.5,163.5C 58.2064,168.848 57.873,174.181 58.5,179.5C 59.6074,180.022 60.7741,180.355 62,180.5C 66.2966,178.432 70.7966,177.099 75.5,176.5C 79.6184,176.758 83.2851,178.258 86.5,181C 88,181.167 89.5,181.333 91,181.5C 98.0408,179.709 105.041,177.709 112,175.5C 116.3,177.075 120.466,178.741 124.5,180.5C 123.167,180.5 121.833,180.5 120.5,180.5C 117.941,179.034 115.108,178.034 112,177.5C 106.817,178.494 101.984,180.161 97.5,182.5C 96.8333,182.5 96.1667,182.5 95.5,182.5C 89.9736,183.289 84.9736,182.122 80.5,179C 74.2834,177.685 68.6167,178.851 63.5,182.5C 62.8333,182.5 62.1667,182.5 61.5,182.5C 56.9128,181.715 52.5795,180.048 48.5,177.5C 48.5,176.833 48.5,176.167 48.5,175.5C 50.4664,176.441 52.4664,177.441 54.5,178.5C 58.8231,169.558 58.3231,160.891 53,152.5C 52.1824,146.098 52.5158,139.765 54,133.5C 55.8403,131.319 57.0069,128.819 57.5,126C 57.1246,121.12 55.6246,116.62 53,112.5C 51.9109,105.889 52.7442,99.5556 55.5,93.5C 51.6628,88.1747 48.9962,82.3414 47.5,76C 49.2242,68.9183 49.7242,61.7516 49,54.5C 41.1081,45.3976 38.1081,34.731 40,22.5C 37.3214,16.4935 34.6547,10.4935 32,4.5C 29.8153,5.9284 27.8153,7.59506 26,9.5C 25.8253,13.211 25.3253,16.8776 24.5,20.5C 19.6171,21.1879 15.7837,23.5213 13,27.5C 12.6988,30.9801 11.8655,34.3134 10.5,37.5C 7.75872,39.9528 4.92539,42.2861 2,44.5C 1.92556,50.1659 4.2589,54.8326 9,58.5C 9.7328,62.9712 9.2328,67.3046 7.5,71.5C 11.6542,75.8318 14.8209,80.8318 17,86.5C 17.6667,89.1667 17.6667,91.8333 17,94.5C 13.356,101.585 14.356,107.919 20,113.5C 20.3903,121.821 21.057,130.154 22,138.5C 25.1265,146.15 26.7932,154.15 27,162.5C 27.6708,163.252 28.5041,163.586 29.5,163.5C 29.5,164.167 29.5,164.833 29.5,165.5C 28.8333,165.833 28.1667,166.167 27.5,166.5C 26.828,165.733 25.9947,165.066 25,164.5C 24.0932,157.819 23.0932,151.152 22,144.5C 19.6757,139.532 18.1757,134.365 17.5,129C 19.0314,125.31 19.5314,121.477 19,117.5C 17.0318,114.187 15.0318,110.854 13,107.5C 13.9642,100.238 14.2975,92.9045 14,85.5C 12.4793,81.2325 9.81259,77.2325 6,73.5C 6.33333,68.8333 6.66667,64.1667 7,59.5C 4.26704,56.9375 1.76704,54.2709 -0.5,51.5C -0.5,48.8333 -0.5,46.1667 -0.5,43.5C 2.72828,40.9602 5.89495,38.2935 9,35.5C 9.67764,30.75 11.3443,26.4167 14,22.5C 16.5675,20.6949 19.4008,19.3615 22.5,18.5C 23.3253,14.8776 23.8253,11.211 24,7.5C 27.3575,4.96876 30.5242,2.30209 33.5,-0.5 Z"/></g>
<g><path style="opacity:1" fill="#666d1e" d="M 26.5,25.5 C 32.9767,25.6454 35.9767,28.9788 35.5,35.5C 35.7929,39.9172 34.6263,43.9172 32,47.5C 23.3409,53.2314 18.5075,50.8981 17.5,40.5C 17.7331,33.7594 20.7331,28.7594 26.5,25.5 Z"/></g>
<g><path style="opacity:1" fill="#fce201" d="M 127.5,180.5 C 126.5,180.5 125.5,180.5 124.5,180.5C 120.466,178.741 116.3,177.075 112,175.5C 105.041,177.709 98.0408,179.709 91,181.5C 89.5,181.333 88,181.167 86.5,181C 83.2851,178.258 79.6184,176.758 75.5,176.5C 70.7966,177.099 66.2966,178.432 62,180.5C 60.7741,180.355 59.6074,180.022 58.5,179.5C 57.873,174.181 58.2064,168.848 59.5,163.5C 58.6215,159.411 57.4548,155.411 56,151.5C 55.8333,148.5 55.6667,145.5 55.5,142.5C 55.6019,135.987 56.6019,129.654 58.5,123.5C 57.3154,117.631 55.9821,111.798 54.5,106C 54.5562,101.442 55.5562,97.109 57.5,93C 54.9192,88.6726 52.7526,84.1726 51,79.5C 50.5948,71.1466 50.5948,62.8133 51,54.5C 48,50.1667 45,45.8333 42,41.5C 41.6667,34.5 41.3333,27.5 41,20.5C 40.0543,15.9419 38.0543,11.9419 35,8.5C 34.5034,6.19018 34.3367,3.85684 34.5,1.5C 36.1992,1.33982 37.8659,1.50649 39.5,2C 44.2653,5.54879 49.5986,7.71545 55.5,8.5C 60.3124,6.59309 64.979,4.42642 69.5,2C 77.7589,1.1237 84.4256,4.1237 89.5,11C 93.5,11.6667 97.5,11.6667 101.5,11C 110.14,5.46567 117.806,6.46567 124.5,14C 127.5,14.5 130.5,15 133.5,15.5C 139.905,14.5685 146.072,12.9018 152,10.5C 156.094,10.5679 159.261,12.4012 161.5,16C 167.436,16.7634 173.269,16.2634 179,14.5C 182.229,15.0989 185.396,15.9322 188.5,17C 193.352,20.6078 198.685,21.4412 204.5,19.5C 204.66,21.1992 204.494,22.8659 204,24.5C 200.748,26.8368 199.248,30.0034 199.5,34C 199.962,38.2652 201.296,42.2652 203.5,46C 201.804,53.5862 199.804,61.0862 197.5,68.5C 199.27,73.8685 200.27,79.3685 200.5,85C 201.354,90.3246 199.854,94.8246 196,98.5C 195.737,106.585 196.07,114.585 197,122.5C 194.667,126.5 192.333,130.5 190,134.5C 189.667,140.167 189.333,145.833 189,151.5C 187.085,155.665 184.918,159.665 182.5,163.5C 184.106,168.2 183.772,172.7 181.5,177C 173.982,175.974 166.649,176.807 159.5,179.5C 155.885,178.295 152.218,177.295 148.5,176.5C 141.25,176.853 134.25,178.186 127.5,180.5 Z"/></g>
<g><path style="opacity:1" fill="#84760e" d="M 157.5,48.5 C 155.167,48.5 152.833,48.5 150.5,48.5C 150.5,44.8333 150.5,41.1667 150.5,37.5C 151.5,37.5 152.5,37.5 153.5,37.5C 153.5,40.8333 153.5,44.1667 153.5,47.5C 155.099,47.2322 156.432,47.5655 157.5,48.5 Z"/></g>
<g><path style="opacity:1" fill="#c3b05d" d="M 190.5,35.5 C 196.133,35.9613 198.633,38.9613 198,44.5C 196.336,49.0383 193.169,50.5383 188.5,49C 184.413,43.8386 185.079,39.3386 190.5,35.5 Z"/></g>
<g><path style="opacity:1" fill="#c3b05e" d="M 65.5,10.5 C 71.8345,9.65225 76.0012,12.3189 78,18.5C 79.9504,26.4553 78.1171,33.2887 72.5,39C 65.2289,40.7787 61.0623,37.9454 60,30.5C 57.9275,22.5871 59.7608,15.9205 65.5,10.5 Z"/></g>
<g><path style="opacity:1" fill="#403907" d="M 110.5,48.5 C 108.5,48.5 106.5,48.5 104.5,48.5C 104.177,44.774 104.511,41.1073 105.5,37.5C 106.487,40.7683 106.82,44.1016 106.5,47.5C 108.099,47.2322 109.432,47.5655 110.5,48.5 Z"/></g>
<g><path style="opacity:1" fill="#211c06" d="M 119.5,40.5 C 120.586,40.62 121.253,41.2867 121.5,42.5C 120.67,44.8284 119.837,47.1617 119,49.5C 118.956,46.5248 119.123,43.5248 119.5,40.5 Z"/></g>
<g><path style="opacity:1" fill="#241f06" d="M 165.5,41.5 C 166.239,41.369 166.906,41.5357 167.5,42C 164.84,52.1543 164.173,51.9877 165.5,41.5 Z"/></g>
<g><path style="opacity:1" fill="#c3b05d" d="M 65.5,49.5 C 70.3521,48.2772 73.5188,49.9438 75,54.5C 75.3438,61.1532 72.1772,63.9865 65.5,63C 61.5413,58.5015 61.5413,54.0015 65.5,49.5 Z"/></g>
<g><path style="opacity:1" fill="#fbfbfb" d="M 87.5,101.5 C 91.9051,91.3065 88.5717,86.3065 77.5,86.5C 75.0262,69.8392 81.3595,58.0058 96.5,51C 115.306,46.7075 128.139,53.5409 135,71.5C 137.649,87.031 132.149,98.531 118.5,106C 107.15,110.479 96.8166,108.979 87.5,101.5 Z"/></g>
<g><path style="opacity:1" fill="#f9f9f9" d="M 167.5,90.5 C 165.214,90.595 163.214,91.2616 161.5,92.5C 154.86,94.8157 148.193,97.149 141.5,99.5C 139.121,98.5581 136.954,97.2247 135,95.5C 135.966,89.9357 136.799,84.269 137.5,78.5C 137.254,72.4279 135.588,66.7612 132.5,61.5C 142.278,48.8922 154.278,46.3922 168.5,54C 180.321,63.1117 183.321,74.445 177.5,88C 173.867,88.1489 170.534,88.9823 167.5,90.5 Z"/></g>
<g><path style="opacity:1" fill="#222016" d="M 150.5,48.5 C 152.833,48.5 155.167,48.5 157.5,48.5C 178.052,53.9306 185.386,66.9306 179.5,87.5C 180.243,88.1818 180.909,88.8485 181.5,89.5C 177.434,89.307 173.434,89.6403 169.5,90.5C 168.833,90.5 168.167,90.5 167.5,90.5C 170.534,88.9823 173.867,88.1489 177.5,88C 183.321,74.445 180.321,63.1117 168.5,54C 154.278,46.3922 142.278,48.8922 132.5,61.5C 135.588,66.7612 137.254,72.4279 137.5,78.5C 136.799,84.269 135.966,89.9357 135,95.5C 136.954,97.2247 139.121,98.5581 141.5,99.5C 148.193,97.149 154.86,94.8157 161.5,92.5C 152.678,97.9443 143.511,100.944 134,101.5C 135.067,100.809 136.234,100.309 137.5,100C 136,98.5 134.5,97 133,95.5C 121.655,110.436 107.488,113.936 90.5,106C 88.3825,104.951 86.7158,103.451 85.5,101.5C 86.1667,101.5 86.8333,101.5 87.5,101.5C 96.8166,108.979 107.15,110.479 118.5,106C 132.149,98.531 137.649,87.031 135,71.5C 128.139,53.5409 115.306,46.7075 96.5,51C 81.3595,58.0058 75.0262,69.8392 77.5,86.5C 76.8333,85.8333 76.1667,85.1667 75.5,84.5C 74.1659,70.672 79.1659,59.8387 90.5,52C 88.585,49.3547 87.4183,46.5214 87,43.5C 88.5864,46.3405 90.4197,49.0072 92.5,51.5C 96.0896,49.0307 100.09,48.0307 104.5,48.5C 106.5,48.5 108.5,48.5 110.5,48.5C 118.685,49.6755 125.519,53.3422 131,59.5C 133.35,57.3171 135.517,54.9837 137.5,52.5C 135.801,49.2324 134.635,45.8991 134,42.5C 135.763,45.7017 137.763,48.7017 140,51.5C 143.351,49.9542 146.851,48.9542 150.5,48.5 Z"/></g>
<g><path style="opacity:1" fill="#1c1f21" d="M 151.5,66.5 C 160.854,66.6813 165.02,71.348 164,80.5C 161.24,86.2968 156.74,88.4635 150.5,87C 142.196,79.6831 142.529,72.8498 151.5,66.5 Z"/></g>
<g><path style="opacity:1" fill="#1e9dc2" d="M 151.5,68.5 C 159.812,68.3114 163.312,72.3114 162,80.5C 159.565,85.2238 155.731,86.7238 150.5,85C 144.953,79.0318 145.287,73.5318 151.5,68.5 Z"/></g>
<g><path style="opacity:1" fill="#060e11" d="M 151.5,73.5 C 158.004,73.1377 159.671,75.6377 156.5,81C 150.785,81.401 149.119,78.901 151.5,73.5 Z"/></g>
<g><path style="opacity:1" fill="#676f1f" d="M 23.5,79.5 C 32.7913,79.3929 35.6246,83.7262 32,92.5C 25.1859,98.8453 21.0192,97.5119 19.5,88.5C 19.4876,84.8614 20.821,81.8614 23.5,79.5 Z"/></g>
<g><path style="opacity:1" fill="#1b1f21" d="M 114.5,65.5 C 125.833,64.9981 130.666,70.3314 129,81.5C 125.867,87.3265 121.034,89.4932 114.5,88C 105.213,80.4661 105.213,72.9661 114.5,65.5 Z"/></g>
<g><path style="opacity:1" fill="#1985a5" d="M 115.5,67.5 C 126.682,67.4981 130.182,72.8315 126,83.5C 119.508,88.2748 114.175,87.2748 110,80.5C 108.571,74.7001 110.404,70.3668 115.5,67.5 Z"/></g>
<g><path style="opacity:1" fill="#03080b" d="M 116.5,73.5 C 122.067,72.7532 123.9,75.0866 122,80.5C 120,83.1667 118,83.1667 116,80.5C 115.297,78.0709 115.463,75.7375 116.5,73.5 Z"/></g>
<g><path style="opacity:1" fill="#ef6017" d="M 75.5,84.5 C 76.1667,85.1667 76.8333,85.8333 77.5,86.5C 88.5717,86.3065 91.9051,91.3065 87.5,101.5C 86.8333,101.5 86.1667,101.5 85.5,101.5C 87.0971,98.6812 87.5971,95.6812 87,92.5C 85.9887,93.3366 84.8221,93.67 83.5,93.5C 83.4208,92.0695 83.7542,90.7362 84.5,89.5C 80.2047,88.3391 75.8713,88.1725 71.5,89C 71.1667,89.3333 70.8333,89.6667 70.5,90C 71.448,90.4828 72.448,90.6495 73.5,90.5C 73.7778,92.3464 73.1112,93.6798 71.5,94.5C 70.4095,92.9852 69.0761,92.1519 67.5,92C 64.304,94.5358 64.304,96.0358 67.5,96.5C 67.5,97.8333 67.5,99.1667 67.5,100.5C 66.325,100.281 65.325,100.614 64.5,101.5C 67.1526,106.189 66.6526,106.523 63,102.5C 62.9932,99.5214 63.3265,96.5214 64,93.5C 67.8017,90.1674 71.635,87.1674 75.5,84.5 Z"/></g>
<g><path style="opacity:1" fill="#645915" d="M 167.5,90.5 C 168.167,90.5 168.833,90.5 169.5,90.5C 167.162,92.0395 164.495,92.7062 161.5,92.5C 163.214,91.2616 165.214,90.595 167.5,90.5 Z"/></g>
<g><path style="opacity:1" fill="#564c05" d="M 181.5,89.5 C 182.496,89.4142 183.329,89.7476 184,90.5C 184.667,93.1667 184.667,95.8333 184,98.5C 183.329,99.2524 182.496,99.5858 181.5,99.5C 182.833,96.1667 182.833,92.8333 181.5,89.5 Z"/></g>
<g><path style="opacity:1" fill="#282404" d="M 74.5,100.5 C 75.9464,99.3871 77.6131,99.2204 79.5,100C 80.5171,101.049 80.6838,102.216 80,103.5C 79.0718,100.965 77.2385,99.9648 74.5,100.5 Z"/></g>
<g><path style="opacity:1" fill="#373107" d="M 181.5,99.5 C 179.371,101.95 176.704,103.617 173.5,104.5C 175.629,102.05 178.296,100.383 181.5,99.5 Z"/></g>
<g><path style="opacity:1" fill="#302a07" d="M 84.5,111.5 C 82.2918,110.082 81.4585,108.082 82,105.5C 83.122,107.407 83.9553,109.407 84.5,111.5 Z"/></g>
<g><path style="opacity:1" fill="#656d1e" d="M 39.5,109.5 C 45.9922,109.301 48.9922,112.467 48.5,119C 48.7359,123.29 47.5692,127.123 45,130.5C 36.5525,136.026 32.0525,133.692 31.5,123.5C 32.0956,117.589 34.7623,112.922 39.5,109.5 Z"/></g>
<g><path style="opacity:1" fill="#393309" d="M 84.5,111.5 C 87.2109,115.212 90.5442,118.212 94.5,120.5C 89.28,119.614 85.9467,116.614 84.5,111.5 Z"/></g>
<g><path style="opacity:1" fill="#3a3305" d="M 94.5,120.5 C 97.9302,121.714 101.264,123.214 104.5,125C 108.025,125.179 111.359,125.679 114.5,126.5C 114.5,126.833 114.5,127.167 114.5,127.5C 106.787,127.884 100.12,125.551 94.5,120.5 Z"/></g>
<g><path style="opacity:1" fill="#463f0c" d="M 173.5,104.5 C 172.942,105.79 171.942,106.623 170.5,107C 165.833,108 161.167,109 156.5,110C 158.162,114.317 159.829,118.65 161.5,123C 161.095,123.945 160.428,124.612 159.5,125C 157.444,125.311 155.444,125.811 153.5,126.5C 152.741,131.463 152.741,136.463 153.5,141.5C 147.833,141.5 142.167,141.5 136.5,141.5C 136.182,136.968 136.515,132.634 137.5,128.5C 137.5,132.5 137.5,136.5 137.5,140.5C 140.385,140.806 143.052,140.473 145.5,139.5C 147.5,139.5 149.5,139.5 151.5,139.5C 151.5,135.833 151.5,132.167 151.5,128.5C 151.179,126.952 150.179,126.285 148.5,126.5C 152.353,125.276 156.353,124.109 160.5,123C 158.74,119.225 157.073,115.392 155.5,111.5C 151.874,110.878 148.207,110.711 144.5,111C 154.129,108.676 163.795,106.51 173.5,104.5 Z"/></g>
<g><path style="opacity:1" fill="#161512" d="M 141.5,126.5 C 143.833,126.5 146.167,126.5 148.5,126.5C 150.179,126.285 151.179,126.952 151.5,128.5C 148.646,128.118 145.646,128.118 142.5,128.5C 142.167,127.833 141.833,127.167 141.5,126.5 Z"/></g>
<g><path style="opacity:1" fill="#f8f8f8" d="M 151.5,128.5 C 151.5,132.167 151.5,135.833 151.5,139.5C 149.5,139.5 147.5,139.5 145.5,139.5C 143.167,139.5 140.833,139.5 138.5,139.5C 138.5,136.167 138.5,132.833 138.5,129.5C 139.791,129.737 140.791,129.404 141.5,128.5C 141.833,128.5 142.167,128.5 142.5,128.5C 145.646,128.118 148.646,128.118 151.5,128.5 Z"/></g>
<g><path style="opacity:1" fill="#c3b05d" d="M 78.5,130.5 C 84.78,131.254 86.1133,134.421 82.5,140C 80.5594,140.743 78.7261,140.576 77,139.5C 76.068,136.177 76.568,133.177 78.5,130.5 Z"/></g>
<g><path style="opacity:1" fill="#8a8c8f" d="M 137.5,128.5 C 138.833,128.5 140.167,128.5 141.5,128.5C 140.791,129.404 139.791,129.737 138.5,129.5C 138.5,132.833 138.5,136.167 138.5,139.5C 140.833,139.5 143.167,139.5 145.5,139.5C 143.052,140.473 140.385,140.806 137.5,140.5C 137.5,136.5 137.5,132.5 137.5,128.5 Z"/></g>
<g><path style="opacity:1" fill="#353019" d="M 114.5,126.5 C 123.5,126.5 132.5,126.5 141.5,126.5C 141.833,127.167 142.167,127.833 142.5,128.5C 142.167,128.5 141.833,128.5 141.5,128.5C 140.167,128.5 138.833,128.5 137.5,128.5C 134.833,127.167 132.167,127.167 129.5,128.5C 127.5,128.5 125.5,128.5 123.5,128.5C 120.833,128.5 118.167,128.5 115.5,128.5C 115.5,132.833 115.5,137.167 115.5,141.5C 120.186,142.618 124.853,142.618 129.5,141.5C 130.485,137.366 130.818,133.032 130.5,128.5C 131.812,133.015 131.812,137.682 130.5,142.5C 125.2,144.849 119.867,144.849 114.5,142.5C 114.5,137.5 114.5,132.5 114.5,127.5C 114.5,127.167 114.5,126.833 114.5,126.5 Z"/></g>
<g><path style="opacity:1" fill="#898f94" d="M 123.5,128.5 C 125.5,128.5 127.5,128.5 129.5,128.5C 129.833,128.5 130.167,128.5 130.5,128.5C 130.818,133.032 130.485,137.366 129.5,141.5C 129.5,137.5 129.5,133.5 129.5,129.5C 127.265,129.795 125.265,129.461 123.5,128.5 Z"/></g>
<g><path style="opacity:1" fill="#fbfbfb" d="M 123.5,128.5 C 125.265,129.461 127.265,129.795 129.5,129.5C 129.5,133.5 129.5,137.5 129.5,141.5C 124.853,142.618 120.186,142.618 115.5,141.5C 115.5,137.167 115.5,132.833 115.5,128.5C 118.167,128.5 120.833,128.5 123.5,128.5 Z"/></g>
<g><path style="opacity:1" fill="#687020" d="M 30.5,142.5 C 35.1225,141.408 36.9558,143.075 36,147.5C 30.4205,149.752 28.5871,148.085 30.5,142.5 Z"/></g>
<g><path style="opacity:1" fill="#c3b05d" d="M 86.5,148.5 C 94.1145,149.028 96.6145,153.028 94,160.5C 91.2944,167.901 86.1278,171.068 78.5,170C 75.8059,167.347 74.9726,164.18 76,160.5C 77.9635,155.044 81.4635,151.044 86.5,148.5 Z"/></g>
<g><path style="opacity:1" fill="#f2f8fa" d="M 40.5,154.5 C 43.4327,157.33 45.4327,160.663 46.5,164.5C 47.7933,170.705 47.1267,176.705 44.5,182.5C 30.6411,185.227 25.6411,179.561 29.5,165.5C 31.4937,160.173 35.1603,156.506 40.5,154.5 Z"/></g>
<g><path style="opacity:1" fill="#313425" d="M 40.5,154.5 C 45.0255,156.204 47.0255,159.537 46.5,164.5C 45.4327,160.663 43.4327,157.33 40.5,154.5 Z"/></g>
<g><path style="opacity:1" fill="#f15701" d="M 106.5,146.5 C 109.584,149.079 112.584,151.913 115.5,155C 119.29,157.841 123.29,158.508 127.5,157C 129.62,154.591 131.62,152.091 133.5,149.5C 137.458,151.566 141.625,152.9 146,153.5C 150.627,152.908 154.294,150.574 157,146.5C 154.255,154.168 148.755,156.668 140.5,154C 138.385,153.443 136.385,152.609 134.5,151.5C 131.775,155.391 128.275,158.391 124,160.5C 120.439,158.97 116.939,157.303 113.5,155.5C 110.737,152.748 108.403,149.748 106.5,146.5 Z"/></g>
<g><path style="opacity:1" fill="#2f2f27" d="M 40.5,154.5 C 35.1603,156.506 31.4937,160.173 29.5,165.5C 29.5,164.833 29.5,164.167 29.5,163.5C 31.3418,157.605 35.0085,154.605 40.5,154.5 Z"/></g>
<g><path style="opacity:1" fill="#c3b05d" d="M 166.5,160.5 C 174.244,160.048 176.577,163.215 173.5,170C 164.751,171.426 162.418,168.259 166.5,160.5 Z"/></g>
<g><path style="opacity:1" fill="#444443" d="M 46.5,164.5 C 48.0823,167.876 48.7489,171.542 48.5,175.5C 48.5,176.167 48.5,176.833 48.5,177.5C 47.71,178.609 47.21,179.942 47,181.5C 46.3292,182.252 45.4959,182.586 44.5,182.5C 47.1267,176.705 47.7933,170.705 46.5,164.5 Z"/></g>
<g><path style="opacity:1" fill="#f6df00" d="M 39.5,216.5 C 43.3796,218.719 45.713,222.052 46.5,226.5C 48.9879,230.152 51.6546,233.652 54.5,237C 53.9561,238.947 52.6228,239.78 50.5,239.5C 48.5191,239.563 46.8524,238.896 45.5,237.5C 45.1667,238.167 44.8333,238.833 44.5,239.5C 46.0811,243.731 46.5811,248.064 46,252.5C 44.7892,256.462 42.7892,257.129 40,254.5C 38.0197,249.723 37.0197,244.723 37,239.5C 36.2703,245.637 36.7703,251.637 38.5,257.5C 35.9556,257.896 33.7889,257.229 32,255.5C 31.5743,250.426 30.741,245.426 29.5,240.5C 29.1667,240.667 28.8333,240.833 28.5,241C 29.3291,245.442 29.9958,249.942 30.5,254.5C 29.1667,254.5 27.8333,254.5 26.5,254.5C 22.3464,240.808 24.6797,228.474 33.5,217.5C 34.4942,207.347 34.8276,197.014 34.5,186.5C 35.8333,186.5 37.1667,186.5 38.5,186.5C 38.1726,196.681 38.506,206.681 39.5,216.5 Z"/></g>
<g><path style="opacity:0.702" fill="#17130a" d="M 184.5,164.5 C 188.697,170.965 189.864,177.965 188,185.5C 185,187.167 182,188.833 179,190.5C 176.573,201.727 174.573,213.06 173,224.5C 172.25,225.126 171.416,225.626 170.5,226C 173.496,232.983 176.496,239.983 179.5,247C 177.591,250.31 174.924,251.143 171.5,249.5C 168.957,253.421 166.29,257.254 163.5,261C 161.674,261.292 159.841,261.125 158,260.5C 156.674,260.755 155.674,261.422 155,262.5C 151.596,259.868 148.762,256.701 146.5,253C 147.731,248.372 149.898,244.205 153,240.5C 152.266,235.828 152.433,231.161 153.5,226.5C 150.326,226.002 146.993,226.002 143.5,226.5C 143.698,228.575 143.865,230.575 144,232.5C 141.345,234.053 138.512,235.22 135.5,236C 134.874,236.75 134.374,237.584 134,238.5C 131.518,246.455 130.018,254.455 129.5,262.5C 129.737,261.209 129.404,260.209 128.5,259.5C 128.5,258.833 128.5,258.167 128.5,257.5C 128.5,256.833 128.5,256.167 128.5,255.5C 128.5,254.833 128.5,254.167 128.5,253.5C 128.5,252.5 128.5,251.5 128.5,250.5C 124.95,248.381 122.95,249.381 122.5,253.5C 122.5,254.167 122.5,254.833 122.5,255.5C 122.5,256.167 122.167,256.5 121.5,256.5C 121.672,255.508 121.338,254.842 120.5,254.5C 121.651,248.543 123.318,242.71 125.5,237C 123.348,233.844 121.182,230.677 119,227.5C 110.559,226.185 102.059,226.185 93.5,227.5C 92.878,230.37 92.2113,233.204 91.5,236C 87.9912,235.979 84.8245,236.812 82,238.5C 78.8689,249.691 76.3689,261.025 74.5,272.5C 73.8333,271.833 73.1667,271.167 72.5,270.5C 73.2444,266.448 74.2444,262.448 75.5,258.5C 67.6064,257.193 67.6064,256.527 75.5,256.5C 75.69,254.041 74.69,252.374 72.5,251.5C 70.8762,251.36 69.7096,252.027 69,253.5C 67.6318,260.418 65.7985,267.085 63.5,273.5C 63.5,272.167 62.8333,271.5 61.5,271.5C 65.1535,260.24 68.8202,248.906 72.5,237.5C 69.0285,236.865 65.6951,235.865 62.5,234.5C 64.2127,230.471 63.2127,227.305 59.5,225C 55.3904,223.778 51.3904,222.278 47.5,220.5C 46.9478,222.003 46.9478,223.669 47.5,225.5C 47.5,226.167 47.1667,226.5 46.5,226.5C 45.713,222.052 43.3796,218.719 39.5,216.5C 39.5,206.167 39.5,195.833 39.5,185.5C 37.5,185.5 35.5,185.5 33.5,185.5C 33.5,196.167 33.5,206.833 33.5,217.5C 24.6797,228.474 22.3464,240.808 26.5,254.5C 27.1667,255.167 27.8333,255.833 28.5,256.5C 27.325,256.719 26.325,256.386 25.5,255.5C 24.5731,252.287 23.5731,249.12 22.5,246C 23.1457,238.796 24.3123,231.63 26,224.5C 28.5574,221.608 30.724,218.441 32.5,215C 30.9751,213.991 29.3084,213.491 27.5,213.5C 27.5,197.833 27.5,182.167 27.5,166.5C 28.1667,166.167 28.8333,165.833 29.5,165.5C 25.6411,179.561 30.6411,185.227 44.5,182.5C 43.469,183.249 42.3024,183.915 41,184.5C 40.5034,186.81 40.3367,189.143 40.5,191.5C 47.4847,192.593 54.4847,193.593 61.5,194.5C 61.5,190.5 61.5,186.5 61.5,182.5C 62.1667,182.5 62.8333,182.5 63.5,182.5C 63.5,186.833 63.5,191.167 63.5,195.5C 84.5,195.5 105.5,195.5 126.5,195.5C 126.5,194.167 126.5,192.833 126.5,191.5C 127.167,191.5 127.833,191.5 128.5,191.5C 128.5,192.5 128.5,193.5 128.5,194.5C 144.325,195.496 160.325,195.83 176.5,195.5C 176.5,194.5 176.5,193.5 176.5,192.5C 176.909,188.124 177.575,183.79 178.5,179.5C 178.833,179.5 179.167,179.5 179.5,179.5C 179.5,181.833 179.5,184.167 179.5,186.5C 185.236,187.082 187.902,184.416 187.5,178.5C 187.272,176.793 186.938,175.126 186.5,173.5C 185.071,170.692 184.405,167.692 184.5,164.5 Z"/></g>
<g><path style="opacity:1" fill="#bb7845" d="M 120.5,213.5 C 120.75,215.674 121.75,217.341 123.5,218.5C 123.795,220.423 124.628,222.09 126,223.5C 128.127,221.886 129.627,219.886 130.5,217.5C 132.587,216.415 133.92,214.749 134.5,212.5C 139.304,209.757 144.637,208.757 150.5,209.5C 150.5,206.833 150.5,204.167 150.5,201.5C 144.167,201.5 137.833,201.5 131.5,201.5C 131.586,200.504 131.252,199.671 130.5,199C 145.163,198.5 159.83,198.333 174.5,198.5C 173.317,207.122 172.317,215.788 171.5,224.5C 135.495,224.389 99.4945,224.722 63.5,225.5C 63.5,216.5 63.5,207.5 63.5,198.5C 83.8361,198.333 104.169,198.5 124.5,199C 124.043,199.414 123.709,199.914 123.5,200.5C 116.197,201.497 108.863,201.831 101.5,201.5C 101.5,204.167 101.5,206.833 101.5,209.5C 107.167,209.5 112.833,209.5 118.5,209.5C 118.229,211.38 118.896,212.713 120.5,213.5 Z"/></g>
<g><path style="opacity:0.996" fill="#27170e" d="M 130.5,217.5 C 129.627,219.886 128.127,221.886 126,223.5C 124.628,222.09 123.795,220.423 123.5,218.5C 124.79,219.058 125.623,220.058 126,221.5C 127.371,219.959 128.871,218.625 130.5,217.5 Z"/></g>
<g><path style="opacity:1" fill="#301d13" d="M 134.5,212.5 C 133.92,214.749 132.587,216.415 130.5,217.5C 131.08,215.251 132.413,213.585 134.5,212.5 Z"/></g>
<g><path style="opacity:1" fill="#27150b" d="M 120.5,213.5 C 122.25,214.659 123.25,216.326 123.5,218.5C 121.75,217.341 120.75,215.674 120.5,213.5 Z"/></g>
<g><path style="opacity:1" fill="#55361d" d="M 156.5,209.5 C 155.527,207.052 155.194,204.385 155.5,201.5C 160.167,201.5 164.833,201.5 169.5,201.5C 169.5,204.5 169.5,207.5 169.5,210.5C 164.968,210.818 160.634,210.485 156.5,209.5 Z"/></g>
<g><path style="opacity:1" fill="#000000" d="M 156.5,209.5 C 156.5,207.167 156.5,204.833 156.5,202.5C 160.5,202.5 164.5,202.5 168.5,202.5C 168.5,204.833 168.5,207.167 168.5,209.5C 164.5,209.5 160.5,209.5 156.5,209.5 Z"/></g>
<g><path style="opacity:1" fill="#070301" d="M 131.5,201.5 C 137.833,201.5 144.167,201.5 150.5,201.5C 150.5,204.167 150.5,206.833 150.5,209.5C 144.637,208.757 139.304,209.757 134.5,212.5C 134.414,211.504 134.748,210.671 135.5,210C 133.754,207.341 132.42,204.508 131.5,201.5 Z"/></g>
<g><path style="opacity:1" fill="#010100" d="M 73.5,201.5 C 79.1667,201.5 84.8333,201.5 90.5,201.5C 90.5,203.833 90.5,206.167 90.5,208.5C 84.8333,208.5 79.1667,208.5 73.5,208.5C 73.5,206.167 73.5,203.833 73.5,201.5 Z"/></g>
<g><path style="opacity:1" fill="#e72801" d="M 131.5,201.5 C 132.42,204.508 133.754,207.341 135.5,210C 134.748,210.671 134.414,211.504 134.5,212.5C 132.413,213.585 131.08,215.251 130.5,217.5C 128.871,218.625 127.371,219.959 126,221.5C 125.623,220.058 124.79,219.058 123.5,218.5C 123.25,216.326 122.25,214.659 120.5,213.5C 120.461,212.417 120.127,211.417 119.5,210.5C 121.767,205.576 124.433,200.909 127.5,196.5C 128.612,198.419 129.946,200.086 131.5,201.5 Z"/></g>
<g><path style="opacity:1" fill="#9a5f31" d="M 40.5,192.5 C 47.5,193.833 54.5,195.167 61.5,196.5C 61.5,205.5 61.5,214.5 61.5,223.5C 54.7179,221.572 48.0513,219.239 41.5,216.5C 40.5108,212.893 40.1774,209.226 40.5,205.5C 43.8717,206.401 47.205,206.401 50.5,205.5C 51.3742,203.253 51.7076,200.92 51.5,198.5C 47.8026,197.992 44.1359,197.326 40.5,196.5C 40.5,195.167 40.5,193.833 40.5,192.5 Z"/></g>
<g><path style="opacity:1" fill="#bcbcbc" d="M 176.5,192.5 C 176.5,193.5 176.5,194.5 176.5,195.5C 160.325,195.83 144.325,195.496 128.5,194.5C 144.74,195.128 160.74,194.461 176.5,192.5 Z"/></g>
<g><path style="opacity:1" fill="#8e582d" d="M 28.5,190.5 C 29.8333,190.5 31.1667,190.5 32.5,190.5C 31.297,197.826 31.297,205.159 32.5,212.5C 31.1779,212.67 30.0113,212.337 29,211.5C 28.5004,204.508 28.3337,197.508 28.5,190.5 Z"/></g>
<g><path style="opacity:1" fill="#b5a200" d="M 39.5,216.5 C 38.506,206.681 38.1726,196.681 38.5,186.5C 37.1667,186.5 35.8333,186.5 34.5,186.5C 34.8276,197.014 34.4942,207.347 33.5,217.5C 33.5,206.833 33.5,196.167 33.5,185.5C 35.5,185.5 37.5,185.5 39.5,185.5C 39.5,195.833 39.5,206.167 39.5,216.5 Z"/></g>
<g><path style="opacity:1" fill="#1d1b1b" d="M 120.5,180.5 C 121.833,180.5 123.167,180.5 124.5,180.5C 125.5,180.5 126.5,180.5 127.5,180.5C 128.919,181.451 130.585,181.784 132.5,181.5C 133.552,181.351 134.552,181.517 135.5,182C 136.808,184.795 138.474,187.295 140.5,189.5C 145.896,186.473 151.229,183.473 156.5,180.5C 157.492,180.328 158.158,180.662 158.5,181.5C 152.386,185.059 146.053,188.392 139.5,191.5C 137.47,189.103 135.803,186.437 134.5,183.5C 133.712,184.77 132.712,185.77 131.5,186.5C 131.539,185.417 131.873,184.417 132.5,183.5C 129.894,182.348 127.227,182.182 124.5,183C 125.38,184.356 125.714,185.856 125.5,187.5C 124.518,185.594 123.518,183.594 122.5,181.5C 119.858,185.775 116.525,189.442 112.5,192.5C 106.276,189.896 100.609,186.563 95.5,182.5C 96.1667,182.5 96.8333,182.5 97.5,182.5C 102.314,185.409 107.314,188.075 112.5,190.5C 115.54,187.461 118.206,184.127 120.5,180.5 Z"/></g>
<g><path style="opacity:1" fill="#372e2e" d="M 131.5,186.5 C 131.25,188.674 130.25,190.341 128.5,191.5C 128.75,189.326 129.75,187.659 131.5,186.5 Z"/></g>
<g><path style="opacity:1" fill="#ce2705" d="M 131.5,186.5 C 129.75,187.659 128.75,189.326 128.5,191.5C 127.833,191.5 127.167,191.5 126.5,191.5C 125.566,190.432 125.232,189.099 125.5,187.5C 125.714,185.856 125.38,184.356 124.5,183C 127.227,182.182 129.894,182.348 132.5,183.5C 131.873,184.417 131.539,185.417 131.5,186.5 Z"/></g>
<g><path style="opacity:1" fill="#cceaee" d="M 29.5,182.5 C 30.9217,182.709 32.255,183.209 33.5,184C 32.5939,185.699 32.2606,187.533 32.5,189.5C 31.5,189.5 30.5,189.5 29.5,189.5C 29.5,187.167 29.5,184.833 29.5,182.5 Z"/></g>
<g><path style="opacity:1" fill="#cdf0f7" d="M 48.5,177.5 C 52.5795,180.048 56.9128,181.715 61.5,182.5C 61.5,186.5 61.5,190.5 61.5,194.5C 54.4847,193.593 47.4847,192.593 40.5,191.5C 40.3367,189.143 40.5034,186.81 41,184.5C 42.3024,183.915 43.469,183.249 44.5,182.5C 45.4959,182.586 46.3292,182.252 47,181.5C 47.21,179.942 47.71,178.609 48.5,177.5 Z"/></g>
<g><path style="opacity:1" fill="#f8f9f8" d="M 178.5,179.5 C 177.575,183.79 176.909,188.124 176.5,192.5C 160.74,194.461 144.74,195.128 128.5,194.5C 128.5,193.5 128.5,192.5 128.5,191.5C 130.25,190.341 131.25,188.674 131.5,186.5C 132.712,185.77 133.712,184.77 134.5,183.5C 135.803,186.437 137.47,189.103 139.5,191.5C 146.053,188.392 152.386,185.059 158.5,181.5C 165.04,178.537 171.707,177.871 178.5,179.5 Z"/></g>
<g><path style="opacity:1" fill="#f3f3f2" d="M 156.5,180.5 C 151.229,183.473 145.896,186.473 140.5,189.5C 138.474,187.295 136.808,184.795 135.5,182C 134.552,181.517 133.552,181.351 132.5,181.5C 133.808,180.768 135.142,179.934 136.5,179C 143.311,178.065 149.977,178.565 156.5,180.5 Z"/></g>
<g><path style="opacity:1" fill="#f4f4f4" d="M 95.5,182.5 C 100.609,186.563 106.276,189.896 112.5,192.5C 116.525,189.442 119.858,185.775 122.5,181.5C 123.518,183.594 124.518,185.594 125.5,187.5C 125.232,189.099 125.566,190.432 126.5,191.5C 126.5,192.833 126.5,194.167 126.5,195.5C 105.5,195.5 84.5,195.5 63.5,195.5C 63.5,191.167 63.5,186.833 63.5,182.5C 68.6167,178.851 74.2834,177.685 80.5,179C 84.9736,182.122 89.9736,183.289 95.5,182.5 Z"/></g>
<g><path style="opacity:1" fill="#f3f4f2" d="M 120.5,180.5 C 118.206,184.127 115.54,187.461 112.5,190.5C 107.314,188.075 102.314,185.409 97.5,182.5C 101.984,180.161 106.817,178.494 112,177.5C 115.108,178.034 117.941,179.034 120.5,180.5 Z"/></g>
<g><path style="opacity:1" fill="#ececec" d="M 186.5,173.5 C 186.938,175.126 187.272,176.793 187.5,178.5C 187.902,184.416 185.236,187.082 179.5,186.5C 179.5,184.167 179.5,181.833 179.5,179.5C 180.675,179.719 181.675,179.386 182.5,178.5C 183.612,176.581 184.946,174.914 186.5,173.5 Z"/></g>
<g><path style="opacity:1" fill="#9c6132" d="M 79.5,227.5 C 83.1667,227.5 86.8333,227.5 90.5,227.5C 90.5,229.833 90.5,232.167 90.5,234.5C 82.4845,235.702 74.4845,235.702 66.5,234.5C 65.6314,232.283 65.298,229.95 65.5,227.5C 70.1667,227.5 74.8333,227.5 79.5,227.5 Z"/></g>
<g><path style="opacity:1" fill="#995f31" d="M 121.5,228.5 C 128.313,227.509 135.313,227.175 142.5,227.5C 142.5,229.167 142.5,230.833 142.5,232.5C 136.862,233.459 131.195,233.626 125.5,233C 123.93,231.603 122.596,230.103 121.5,228.5 Z"/></g>
<g><path style="opacity:1" fill="#f2dc00" d="M 170.5,246.5 C 168.999,242.169 166.499,238.502 163,235.5C 162.667,233.167 162.333,230.833 162,228.5C 160.627,230.695 160.294,233.029 161,235.5C 164.822,238.514 167.655,242.181 169.5,246.5C 168.498,251.676 165.998,256.009 162,259.5C 161.51,258.207 161.343,256.873 161.5,255.5C 160.596,256.209 160.263,257.209 160.5,258.5C 158.599,258.433 156.766,258.767 155,259.5C 153.739,259.241 152.739,258.574 152,257.5C 152.756,255.285 153.589,252.951 154.5,250.5C 153.173,251.8 151.84,253.133 150.5,254.5C 149.119,254 148.453,253 148.5,251.5C 150.43,247.727 152.597,244.06 155,240.5C 155.259,238.009 155.093,235.509 154.5,233C 154.439,230.739 155.106,228.739 156.5,227C 160.871,226.172 165.205,226.339 169.5,227.5C 172.167,233.833 174.833,240.167 177.5,246.5C 176.829,247.946 175.662,248.612 174,248.5C 172.301,248.613 171.134,247.947 170.5,246.5 Z"/></g>
<g><path style="opacity:1" fill="#52341b" d="M 79.5,227.5 C 74.8333,227.5 70.1667,227.5 65.5,227.5C 65.298,229.95 65.6314,232.283 66.5,234.5C 64.631,232.365 63.9644,229.698 64.5,226.5C 69.6946,226.179 74.6946,226.513 79.5,227.5 Z"/></g>
<g><path style="opacity:1" fill="#ecd700" d="M 127.5,236.5 C 129.288,236.215 130.955,236.548 132.5,237.5C 130.906,240.991 130.239,244.658 130.5,248.5C 128.5,248.5 126.5,248.5 124.5,248.5C 124.686,244.279 125.686,240.279 127.5,236.5 Z"/></g>
<g><path style="opacity:1" fill="#3c3606" d="M 170.5,246.5 C 170.167,246.5 169.833,246.5 169.5,246.5C 167.655,242.181 164.822,238.514 161,235.5C 160.294,233.029 160.627,230.695 162,228.5C 162.333,230.833 162.667,233.167 163,235.5C 166.499,238.502 168.999,242.169 170.5,246.5 Z"/></g>
<g><path style="opacity:1" fill="#efda00" d="M 72.5,251.5 C 71.9566,250.258 71.6233,248.925 71.5,247.5C 72.3797,244.198 73.0463,240.865 73.5,237.5C 75.5,237.5 77.5,237.5 79.5,237.5C 79.3279,241.534 78.8279,245.534 78,249.5C 76.5993,251.192 74.7659,251.859 72.5,251.5 Z"/></g>
<g><path style="opacity:1" fill="#352f09" d="M 154.5,250.5 C 154.886,248.063 156.053,246.063 158,244.5C 158.667,245.167 158.667,245.833 158,246.5C 157.051,248.093 155.885,249.426 154.5,250.5 Z"/></g>
<g><path style="opacity:1" fill="#e9ecef" d="M 128.5,253.5 C 126.5,253.5 124.5,253.5 122.5,253.5C 122.95,249.381 124.95,248.381 128.5,250.5C 128.5,251.5 128.5,252.5 128.5,253.5 Z"/></g>
<g><path style="opacity:1" fill="#524905" d="M 161.5,255.5 C 161.307,251.987 161.974,248.654 163.5,245.5C 163.833,245.833 164.167,246.167 164.5,246.5C 163.867,249.732 162.867,252.732 161.5,255.5 Z"/></g>
<g><path style="opacity:1" fill="#346ca5" d="M 122.5,253.5 C 124.5,253.5 126.5,253.5 128.5,253.5C 128.5,254.167 128.5,254.833 128.5,255.5C 126.5,255.5 124.5,255.5 122.5,255.5C 122.5,254.833 122.5,254.167 122.5,253.5 Z"/></g>
<g><path style="opacity:0.51" fill="#221f06" d="M 47.5,225.5 C 49.0627,228.901 51.5627,231.568 55,233.5C 57.474,236.766 56.974,239.266 53.5,241C 51.0049,241.157 48.6716,241.324 46.5,241.5C 49.9854,248.065 48.9854,253.732 43.5,258.5C 42.7065,258.069 41.8732,257.735 41,257.5C 36.679,260.144 32.5124,259.811 28.5,256.5C 27.8333,255.833 27.1667,255.167 26.5,254.5C 27.8333,254.5 29.1667,254.5 30.5,254.5C 29.9958,249.942 29.3291,245.442 28.5,241C 28.8333,240.833 29.1667,240.667 29.5,240.5C 30.741,245.426 31.5743,250.426 32,255.5C 33.7889,257.229 35.9556,257.896 38.5,257.5C 36.7703,251.637 36.2703,245.637 37,239.5C 37.0197,244.723 38.0197,249.723 40,254.5C 42.7892,257.129 44.7892,256.462 46,252.5C 46.5811,248.064 46.0811,243.731 44.5,239.5C 44.8333,238.833 45.1667,238.167 45.5,237.5C 46.8524,238.896 48.5191,239.563 50.5,239.5C 52.6228,239.78 53.9561,238.947 54.5,237C 51.6546,233.652 48.9879,230.152 46.5,226.5C 47.1667,226.5 47.5,226.167 47.5,225.5 Z"/></g>
<g><path style="opacity:1" fill="#ed2a01" d="M 128.5,257.5 C 128.5,258.167 128.5,258.833 128.5,259.5C 120.5,258.833 120.5,258.167 128.5,257.5 Z"/></g>
<g><path style="opacity:1" fill="#ea967d" d="M 122.5,255.5 C 124.5,255.5 126.5,255.5 128.5,255.5C 128.5,256.167 128.5,256.833 128.5,257.5C 120.5,258.167 120.5,258.833 128.5,259.5C 128.5,259.833 128.5,260.167 128.5,260.5C 126.167,260.5 123.833,260.5 121.5,260.5C 121.5,259.167 121.5,257.833 121.5,256.5C 122.167,256.5 122.5,256.167 122.5,255.5 Z"/></g>
<g><path style="opacity:1" fill="#f0efef" d="M 72.5,251.5 C 74.69,252.374 75.69,254.041 75.5,256.5C 67.6064,256.527 67.6064,257.193 75.5,258.5C 74.2444,262.448 73.2444,266.448 72.5,270.5C 72.5535,276.453 69.8868,279.12 64.5,278.5C 63.6906,276.929 63.3573,275.262 63.5,273.5C 65.7985,267.085 67.6318,260.418 69,253.5C 69.7096,252.027 70.8762,251.36 72.5,251.5 Z"/></g>
<g><path style="opacity:1" fill="#f98a6e" d="M 68.5,259.5 C 70.4286,259.231 72.0953,259.731 73.5,261C 72.6667,261.167 71.8333,261.333 71,261.5C 69.6244,261.316 68.7911,260.649 68.5,259.5 Z"/></g>
<g><path style="opacity:0.93" fill="#050503" d="M 120.5,254.5 C 121.338,254.842 121.672,255.508 121.5,256.5C 121.5,257.833 121.5,259.167 121.5,260.5C 119.863,264.996 119.53,269.663 120.5,274.5C 121.167,274.833 121.833,275.167 122.5,275.5C 124.498,274.333 125.998,272.666 127,270.5C 127.61,267.173 128.11,263.839 128.5,260.5C 128.5,260.167 128.5,259.833 128.5,259.5C 129.404,260.209 129.737,261.209 129.5,262.5C 129.338,264.527 129.505,266.527 130,268.5C 132.018,270.35 133.851,272.35 135.5,274.5C 144.398,269.469 150.731,271.636 154.5,281C 152.167,284.667 149.833,288.333 147.5,292C 140.872,294.408 135.039,293.241 130,288.5C 125.947,293.11 121.447,293.276 116.5,289C 114.151,285.124 112.485,280.957 111.5,276.5C 113.47,273.741 115.637,271.074 118,268.5C 119.029,263.856 119.862,259.19 120.5,254.5 Z"/></g>
<g><path style="opacity:1" fill="#efefef" d="M 121.5,260.5 C 123.833,260.5 126.167,260.5 128.5,260.5C 128.11,263.839 127.61,267.173 127,270.5C 125.998,272.666 124.498,274.333 122.5,275.5C 121.833,275.167 121.167,274.833 120.5,274.5C 119.53,269.663 119.863,264.996 121.5,260.5 Z"/></g>
<g><path style="opacity:0.941" fill="#050503" d="M 72.5,270.5 C 73.1667,271.167 73.8333,271.833 74.5,272.5C 77.0171,273.893 78.6837,275.893 79.5,278.5C 81.9628,278.219 84.1295,277.219 86,275.5C 89.0373,276.709 92.204,277.543 95.5,278C 96.3081,278.308 96.9747,278.808 97.5,279.5C 98.9351,282.643 100.268,285.81 101.5,289C 99.5,291.667 97.5,294.333 95.5,297C 92.6209,297.546 89.9542,298.379 87.5,299.5C 85.5,299.5 83.5,299.5 81.5,299.5C 78.3239,298.489 75.4906,296.822 73,294.5C 62.593,298.208 56.4264,294.541 54.5,283.5C 54.9821,280.459 55.6487,277.459 56.5,274.5C 57.9397,273.048 59.6064,272.048 61.5,271.5C 62.8333,271.5 63.5,272.167 63.5,273.5C 63.3573,275.262 63.6906,276.929 64.5,278.5C 69.8868,279.12 72.5535,276.453 72.5,270.5 Z"/></g>
<g><path style="opacity:1" fill="#e4e4e4" d="M 140.5,278.5 C 142.199,278.34 143.866,278.506 145.5,279C 148.167,280.667 148.167,282.333 145.5,284C 140.083,285.42 138.417,283.586 140.5,278.5 Z"/></g>
<g><path style="opacity:1" fill="#eceded" d="M 87.5,282.5 C 92.5867,282.284 93.5867,284.118 90.5,288C 85.7217,288.073 84.7217,286.24 87.5,282.5 Z"/></g>
</svg>
